<?xml version="1.0" encoding="utf-8"?>
<!-- Generator: Adobe Illustrator 27.1.1, SVG Export Plug-In . SVG Version: 6.00 Build 0)  -->
<svg version="1.1" id="Layer_1" xmlns="http://www.w3.org/2000/svg" xmlns:xlink="http://www.w3.org/1999/xlink" x="0px" y="0px"
	 viewBox="0 0 500 500" style="enable-background:new 0 0 500 500;" xml:space="preserve">
<style type="text/css">
	.st0{fill:#3F3F3F;stroke:#4F4F4F;stroke-width:0.4349;stroke-miterlimit:10;}
	.st1{fill:none;stroke:#4F4F4F;stroke-width:0.6491;stroke-miterlimit:10;}
	.st2{fill:#4F4F4F;stroke:#4F4F4F;stroke-width:0.4577;stroke-miterlimit:10;}
	.st3{fill:none;stroke:#EFE930;stroke-width:0.2694;stroke-miterlimit:10;}
	.st4{fill:none;stroke:#EFE930;stroke-width:0.2713;stroke-miterlimit:10;}
	.st5{fill:none;stroke:#EFE930;stroke-width:0.271;stroke-miterlimit:10;}
	.st6{fill:none;stroke:#EFE930;stroke-width:0.2669;stroke-miterlimit:10;}
	.st7{fill:none;stroke:#EFE930;stroke-width:0.27;stroke-miterlimit:10;}
	.st8{fill:none;stroke:#EFE930;stroke-width:0.2668;stroke-miterlimit:10;}
	.st9{fill:none;stroke:#EFE930;stroke-width:0.2319;stroke-miterlimit:10;}
	.st10{fill:none;stroke:#EFE930;stroke-width:0.2257;stroke-miterlimit:10;}
	.st11{fill:none;stroke:#4F4F4F;stroke-width:1.2489;stroke-miterlimit:10;}
	.st12{fill:#4F4F4F;stroke:#4F4F4F;stroke-width:0.8807;stroke-miterlimit:10;}
	.st13{fill:none;stroke:#EFE930;stroke-width:0.5184;stroke-miterlimit:10;}
	.st14{fill:none;stroke:#EFE930;stroke-width:0.5221;stroke-miterlimit:10;}
	.st15{fill:none;stroke:#EFE930;stroke-width:0.5215;stroke-miterlimit:10;}
	.st16{fill:none;stroke:#EFE930;stroke-width:0.5136;stroke-miterlimit:10;}
	.st17{fill:none;stroke:#EFE930;stroke-width:0.5195;stroke-miterlimit:10;}
	.st18{fill:none;stroke:#EFE930;stroke-width:0.5135;stroke-miterlimit:10;}
	.st19{fill:none;stroke:#EFE930;stroke-width:0.4462;stroke-miterlimit:10;}
	.st20{fill:none;stroke:#EFE930;stroke-width:0.4343;stroke-miterlimit:10;}
	.st21{fill:url(#SVGID_1_);}
	.st22{fill:url(#SVGID_00000099648257713091323130000007208052179105181825_);}
	.st23{fill:none;stroke:#4F4F4F;stroke-width:0.4954;stroke-miterlimit:10;}
	.st24{fill:#E0D548;}
	.st25{fill:url(#SVGID_00000124162177761680425320000004336072193649035660_);}
	.st26{fill:url(#SVGID_00000085217752160364093870000011628235525852954780_);}
	.st27{fill:url(#SVGID_00000147935161357105953170000004352259893181811331_);}
	.st28{fill:url(#SVGID_00000121999559493414100230000018142871527161920640_);}
	.st29{fill:none;stroke:#4F4F4F;stroke-width:0.516;stroke-miterlimit:10;}
	.st30{fill:url(#SVGID_00000025418213968084104510000014884994285963306633_);}
	.st31{fill:url(#SVGID_00000180338337438257479010000018298438894548595090_);}
	.st32{fill:url(#SVGID_00000091704995531949683610000018039718582323818158_);}
	.st33{fill:none;stroke:#4F4F4F;stroke-width:0.7926;stroke-miterlimit:10;}
	.st34{fill:#4F4F4F;stroke:#4F4F4F;stroke-width:0.5588;stroke-miterlimit:10;}
	.st35{fill:none;stroke:#EFE930;stroke-width:0.3289;stroke-miterlimit:10;}
	.st36{fill:none;stroke:#EFE930;stroke-width:0.3313;stroke-miterlimit:10;}
	.st37{fill:none;stroke:#EFE930;stroke-width:0.331;stroke-miterlimit:10;}
	.st38{fill:none;stroke:#EFE930;stroke-width:0.3259;stroke-miterlimit:10;}
	.st39{fill:none;stroke:#EFE930;stroke-width:0.3297;stroke-miterlimit:10;}
	.st40{fill:none;stroke:#EFE930;stroke-width:0.3258;stroke-miterlimit:10;}
	.st41{fill:none;stroke:#EFE930;stroke-width:0.2832;stroke-miterlimit:10;}
	.st42{fill:none;stroke:#EFE930;stroke-width:0.2756;stroke-miterlimit:10;}
	.st43{fill:url(#SVGID_00000092441349674137861090000001158933994044425619_);}
	.st44{fill:url(#SVGID_00000045585960202925858880000017088404348561799866_);}
	.st45{fill:none;stroke:#4F4F4F;stroke-width:0.4653;stroke-miterlimit:10;}
	.st46{fill:url(#SVGID_00000160149704211664724020000011439855038216114861_);}
	.st47{fill:url(#SVGID_00000000924217426377418890000017753910505495810176_);}
	.st48{fill:none;stroke:#4F4F4F;stroke-width:0.9155;stroke-miterlimit:10;}
	.st49{fill:#4F4F4F;stroke:#4F4F4F;stroke-width:0.6456;stroke-miterlimit:10;}
	.st50{fill:none;stroke:#EFE930;stroke-width:0.38;stroke-miterlimit:10;}
	.st51{fill:none;stroke:#EFE930;stroke-width:0.3827;stroke-miterlimit:10;}
	.st52{fill:none;stroke:#EFE930;stroke-width:0.3824;stroke-miterlimit:10;}
	.st53{fill:none;stroke:#EFE930;stroke-width:0.3765;stroke-miterlimit:10;}
	.st54{fill:none;stroke:#EFE930;stroke-width:0.3808;stroke-miterlimit:10;}
	.st55{fill:none;stroke:#EFE930;stroke-width:0.3764;stroke-miterlimit:10;}
	.st56{fill:none;stroke:#EFE930;stroke-width:0.3272;stroke-miterlimit:10;}
	.st57{fill:none;stroke:#EFE930;stroke-width:0.3184;stroke-miterlimit:10;}
	.st58{fill:none;stroke:#4F4F4F;stroke-width:0.4907;stroke-miterlimit:10;}
	.st59{fill:#4F4F4F;stroke:#4F4F4F;stroke-width:0.346;stroke-miterlimit:10;}
	.st60{fill:none;stroke:#EFE930;stroke-width:0.2037;stroke-miterlimit:10;}
	.st61{fill:none;stroke:#EFE930;stroke-width:0.2051;stroke-miterlimit:10;}
	.st62{fill:none;stroke:#EFE930;stroke-width:0.2049;stroke-miterlimit:10;}
	.st63{fill:none;stroke:#EFE930;stroke-width:0.2017;stroke-miterlimit:10;}
	.st64{fill:none;stroke:#EFE930;stroke-width:0.2041;stroke-miterlimit:10;}
	.st65{fill:none;stroke:#EFE930;stroke-width:0.1753;stroke-miterlimit:10;}
	.st66{fill:none;stroke:#EFE930;stroke-width:0.1706;stroke-miterlimit:10;}
	.st67{fill:none;stroke:#4F4F4F;stroke-width:0.6373;stroke-miterlimit:10;}
	.st68{fill:#4F4F4F;stroke:#4F4F4F;stroke-width:0.4494;stroke-miterlimit:10;}
	.st69{fill:none;stroke:#EFE930;stroke-width:0.2645;stroke-miterlimit:10;}
	.st70{fill:none;stroke:#EFE930;stroke-width:0.2665;stroke-miterlimit:10;}
	.st71{fill:none;stroke:#EFE930;stroke-width:0.2661;stroke-miterlimit:10;}
	.st72{fill:none;stroke:#EFE930;stroke-width:0.262;stroke-miterlimit:10;}
	.st73{fill:none;stroke:#EFE930;stroke-width:0.2651;stroke-miterlimit:10;}
	.st74{fill:none;stroke:#EFE930;stroke-width:0.2277;stroke-miterlimit:10;}
	.st75{fill:none;stroke:#EFE930;stroke-width:0.2216;stroke-miterlimit:10;}
	.st76{fill:none;stroke:#4F4F4F;stroke-width:0.5612;stroke-miterlimit:10;}
	.st77{fill:#4F4F4F;stroke:#4F4F4F;stroke-width:0.3957;stroke-miterlimit:10;}
	.st78{fill:none;stroke:#EFE930;stroke-width:0.233;stroke-miterlimit:10;}
	.st79{fill:none;stroke:#EFE930;stroke-width:0.2346;stroke-miterlimit:10;}
	.st80{fill:none;stroke:#EFE930;stroke-width:0.2344;stroke-miterlimit:10;}
	.st81{fill:none;stroke:#EFE930;stroke-width:0.2308;stroke-miterlimit:10;}
	.st82{fill:none;stroke:#EFE930;stroke-width:0.2334;stroke-miterlimit:10;}
	.st83{fill:none;stroke:#EFE930;stroke-width:0.2005;stroke-miterlimit:10;}
	.st84{fill:none;stroke:#EFE930;stroke-width:0.1952;stroke-miterlimit:10;}
	.st85{fill:none;stroke:#4F4F4F;stroke-width:0.8804;stroke-miterlimit:10;}
	.st86{fill:#4F4F4F;stroke:#4F4F4F;stroke-width:0.6208;stroke-miterlimit:10;}
	.st87{fill:none;stroke:#EFE930;stroke-width:0.3654;stroke-miterlimit:10;}
	.st88{fill:none;stroke:#EFE930;stroke-width:0.368;stroke-miterlimit:10;}
	.st89{fill:none;stroke:#EFE930;stroke-width:0.3677;stroke-miterlimit:10;}
	.st90{fill:none;stroke:#EFE930;stroke-width:0.362;stroke-miterlimit:10;}
	.st91{fill:none;stroke:#EFE930;stroke-width:0.3661;stroke-miterlimit:10;}
	.st92{fill:none;stroke:#EFE930;stroke-width:0.3619;stroke-miterlimit:10;}
	.st93{fill:none;stroke:#EFE930;stroke-width:0.3146;stroke-miterlimit:10;}
	.st94{fill:none;stroke:#EFE930;stroke-width:0.3061;stroke-miterlimit:10;}
	.st95{fill:#EFEFEF;stroke:#4F4F4F;stroke-width:1.0881;stroke-miterlimit:10;}
	.st96{fill:#FFDF40;stroke:#4F4F4F;stroke-width:1.0881;stroke-miterlimit:10;}
	.st97{fill:#FFFFFF;stroke:#4F4F4F;stroke-width:1.0475;stroke-miterlimit:10;}
	.st98{fill:none;stroke:#4F4F4F;stroke-width:0.272;stroke-miterlimit:10;}
	.st99{fill:none;stroke:#4F4F4F;stroke-width:1.0881;stroke-miterlimit:10;}
	.st100{stroke:#4F4F4F;stroke-width:0.9289;stroke-miterlimit:10;}
	.st101{stroke:#4F4F4F;stroke-width:1.0881;stroke-miterlimit:10;}
	.st102{fill:#4F4F4F;stroke:#4F4F4F;stroke-width:1.0881;stroke-miterlimit:10;}
	.st103{fill:url(#SVGID_00000174587563024077654510000015926015733960938925_);}
	.st104{fill:url(#SVGID_00000014594272054173945290000004120670305643717521_);}
	.st105{fill:url(#SVGID_00000029733322278671696180000003713036283914430395_);}
	.st106{fill:url(#SVGID_00000145758273175938242850000015006357919469947295_);}
	.st107{fill:url(#SVGID_00000176736777840379437660000017364563546790305719_);}
	.st108{fill:none;stroke:#4F4F4F;stroke-width:1.0357;stroke-miterlimit:10;}
	.st109{fill:#4F4F4F;stroke:#4F4F4F;stroke-width:0.7302;stroke-miterlimit:10;}
	.st110{fill:none;stroke:#EFE930;stroke-width:0.4299;stroke-miterlimit:10;}
	.st111{fill:none;stroke:#EFE930;stroke-width:0.433;stroke-miterlimit:10;}
	.st112{fill:none;stroke:#EFE930;stroke-width:0.4325;stroke-miterlimit:10;}
	.st113{fill:none;stroke:#EFE930;stroke-width:0.4259;stroke-miterlimit:10;}
	.st114{fill:none;stroke:#EFE930;stroke-width:0.4308;stroke-miterlimit:10;}
	.st115{fill:none;stroke:#EFE930;stroke-width:0.4258;stroke-miterlimit:10;}
	.st116{fill:none;stroke:#EFE930;stroke-width:0.3701;stroke-miterlimit:10;}
	.st117{fill:none;stroke:#EFE930;stroke-width:0.3602;stroke-miterlimit:10;}
	.st118{fill:none;stroke:#4F4F4F;stroke-width:0.8542;stroke-miterlimit:10;}
	.st119{fill:#4F4F4F;stroke:#4F4F4F;stroke-width:0.6023;stroke-miterlimit:10;}
	.st120{fill:none;stroke:#EFE930;stroke-width:0.3545;stroke-miterlimit:10;}
	.st121{fill:none;stroke:#EFE930;stroke-width:0.357;stroke-miterlimit:10;}
	.st122{fill:none;stroke:#EFE930;stroke-width:0.3567;stroke-miterlimit:10;}
	.st123{fill:none;stroke:#EFE930;stroke-width:0.3512;stroke-miterlimit:10;}
	.st124{fill:none;stroke:#EFE930;stroke-width:0.3553;stroke-miterlimit:10;}
	.st125{fill:none;stroke:#EFE930;stroke-width:0.3511;stroke-miterlimit:10;}
	.st126{fill:none;stroke:#EFE930;stroke-width:0.3052;stroke-miterlimit:10;}
	.st127{fill:none;stroke:#EFE930;stroke-width:0.2971;stroke-miterlimit:10;}
	.st128{fill:#070707;stroke:#4F4F4F;stroke-width:0.5142;stroke-miterlimit:10;}
	.st129{font-family:'ArialRoundedMTBold';}
	.st130{font-size:24.6879px;}
	.st131{fill:#FFFF88;stroke:#4F4F4F;stroke-width:0.3535;stroke-miterlimit:10;}
	.st132{fill:#EFEFEF;}
</style>
<path class="st0" d="M500,389.4c0,16.8-3,36.8-11.6,60.6c-7.2,19.9-23.3,35.2-43.4,41.5c-10.9,3.4-22.8,6.4-35.6,8.3h-61.3
	c-1.3-0.2-2.7-0.4-3.9-0.6c-71.4-13-94.5-60.1-157-71.7c-22.8-4.3-54-4.3-94.3,11.5c-43,17-90.2-13.2-92.5-59.4
	C0.1,374,0,368.5,0,363.1C0,343,2,326,4.4,311.7c12-68.1,41.7-96.7,47.2-165c1-12.5,1.1-24.6,0.4-36.1c-2.3-41.1,32.6-74.5,73.6-71
	c0.4,0,0.9,0.1,1.3,0.1c83.1,6.8,124.6-31.1,218.2-37.5c4.2-0.3,8.8-0.5,13.6-0.6C407.7,0,442.6,49.1,424,94.3
	c-1.6,3.8-3.1,7.9-4.5,12c-8,22.8-23.4,66.6-11.5,114.3c16.5,66.8,69.4,72.4,87.3,133.1C497.8,363.4,500,375.2,500,389.4z"/>
<g>
	<g>
		<path class="st1" d="M214,445.1c1.8-3.5,9.4-17.8,30.2-30.4c13.4-8.2,25.9-11.9,31.9-13.3"/>
		<g>
			<path d="M306.4,433.5"/>
			<path class="st2" d="M323.5,381.8c0.6,6.8-14.4,18.9-37.3,29.4c-22.8,10.5-46.1,16-56.9,14c-0.6-6.8,14.4-18.9,37.3-29.4
				C289.4,385.2,312.7,379.8,323.5,381.8z"/>
			<path class="st3" d="M229.3,425.2c11.3-7.7,26.3-16.4,45.2-25.1c17.6-8,34.5-13.9,49-18.3"/>
			<path class="st4" d="M237,420.1c3.7-1.1,9.8-2.6,17.7-2.9c5.9-0.2,10.8,0.2,14.2,0.7"/>
			<path class="st5" d="M245.4,415.1c3.7-1.1,9.8-2.6,17.7-2.9c5.9-0.2,10.8,0.2,14.2,0.7"/>
			<path class="st6" d="M254.4,410c3.5-1.1,9.4-2.6,17.2-2.8c5.7-0.2,10.4,0.3,13.8,0.9"/>
			<path class="st7" d="M265,404.7c3.7-1.1,9.6-2.6,17.5-2.8c5.8-0.2,10.6,0.3,14.1,0.7"/>
			<path class="st8" d="M277.3,398.9c3.5-1.1,9.4-2.6,17.2-2.8c5.7-0.2,10.4,0.3,13.8,0.9"/>
			<path class="st9" d="M291.5,392.9c2.9-0.7,7.5-1.6,13.4-1.3c4.3,0.3,7.8,1.2,10.1,2"/>
			<path class="st10" d="M296.1,391.1c2.4-1,6.7-2.3,12.2-2.5c4.1-0.1,7.5,0.4,10,1.1"/>
		</g>
	</g>
	<g>
		<path class="st11" d="M119.6,264.5c2.9-8.2,15.1-41.3,48.1-70.8c21.4-19,41.4-27.7,50.9-31.2"/>
		<g>
			<path d="M266.8,237.6"/>
			<path class="st12" d="M294,117.4c0.9,15.8-23,43.9-59.3,68.3s-73.5,37.3-90.7,32.4c-0.9-15.8,23-43.9,59.3-68.3
				C239.7,125.5,276.9,112.6,294,117.4z"/>
			<path class="st13" d="M143.9,218.2c18.1-17.7,41.8-38.2,72.1-58.3c28.1-18.6,55-32.4,78.1-42.5"/>
			<path class="st14" d="M156.1,206.5c5.8-2.5,15.6-5.9,28.3-6.6c9.3-0.5,17.2,0.6,22.7,1.8"/>
			<path class="st15" d="M169.5,194.7c5.8-2.5,15.5-5.9,28.2-6.6c9.3-0.5,17.2,0.6,22.6,1.8"/>
			<path class="st16" d="M184,182.9c5.7-2.5,15.1-5.9,27.3-6.5c9.1-0.5,16.6,0.6,22,1.9"/>
			<path class="st17" d="M200.8,170.4c5.8-2.5,15.4-5.9,27.9-6.5c9.3-0.5,17.1,0.6,22.5,1.8"/>
			<path class="st18" d="M220.4,157.1c5.7-2.5,15.1-5.9,27.3-6.5c9.1-0.5,16.6,0.6,22,1.9"/>
			<path class="st19" d="M243.1,143.2c4.5-1.7,12.1-3.8,21.3-2.9c6.9,0.6,12.3,2.8,16.1,4.7"/>
			<path class="st20" d="M250.4,139c4-2.3,10.6-5.4,19.4-5.8c6.5-0.2,12,1.1,15.9,2.5"/>
		</g>
	</g>
	<g>
		<g>
			
				<linearGradient id="SVGID_1_" gradientUnits="userSpaceOnUse" x1="173.8674" y1="423.3645" x2="230.1127" y2="423.3645" gradientTransform="matrix(1 0 0 -1 0 502)">
				<stop  offset="0" style="stop-color:#000000"/>
				<stop  offset="0.3726" style="stop-color:#020200"/>
				<stop  offset="0.5069" style="stop-color:#090802"/>
				<stop  offset="0.6026" style="stop-color:#141205"/>
				<stop  offset="0.68" style="stop-color:#252109"/>
				<stop  offset="0.7463" style="stop-color:#3B340F"/>
				<stop  offset="0.805" style="stop-color:#574C16"/>
				<stop  offset="0.8581" style="stop-color:#77681E"/>
				<stop  offset="0.9069" style="stop-color:#9D8927"/>
				<stop  offset="0.9523" style="stop-color:#C8AF32"/>
				<stop  offset="0.9926" style="stop-color:#F6D73E"/>
				<stop  offset="1" style="stop-color:#FFDF40"/>
			</linearGradient>
			<path class="st21" d="M228.2,42.9L228.2,42.9c1,0,1.9-0.7,1.9-1.6c0-1-0.8-1.8-1.8-1.8h-52.6c-1,0-1.9,0.7-1.9,1.6
				c0,1,0.8,1.8,1.8,1.8h2.7c1,0,1.8,0.7,1.8,1.7c2,9.1,3.7,20.4,3.7,33.5c0,13.5-1.7,25.2-3.7,34.5c0,0.1,0,0.7-0.6,1.2
				c-0.3,0.3-0.8,0.5-1.3,0.5h-2.6c-1,0-1.9,0.7-1.9,1.6c0,1,0.8,1.8,1.8,1.8h52.6c1,0,1.9-0.7,1.9-1.6c0-1-0.8-1.8-1.8-1.8h-2.7
				c-1,0-1.8-0.7-1.8-1.7c-2.6-8.6-5.1-20.7-5-35.4c0.1-12.3,2.2-22.7,4.4-30.6C223.9,44.4,225.9,42.9,228.2,42.9z"/>
		</g>
		<g>
			<g>
				
					<linearGradient id="SVGID_00000042015229504781003390000004286030423541059238_" gradientUnits="userSpaceOnUse" x1="176.3032" y1="91.7395" x2="232.5485" y2="91.7395" gradientTransform="matrix(1 0 0 -1 0 502)">
					<stop  offset="0" style="stop-color:#000000"/>
					<stop  offset="0.3726" style="stop-color:#020200"/>
					<stop  offset="0.5069" style="stop-color:#090802"/>
					<stop  offset="0.6026" style="stop-color:#141205"/>
					<stop  offset="0.68" style="stop-color:#252109"/>
					<stop  offset="0.7463" style="stop-color:#3B340F"/>
					<stop  offset="0.805" style="stop-color:#574C16"/>
					<stop  offset="0.8581" style="stop-color:#77681E"/>
					<stop  offset="0.9069" style="stop-color:#9D8927"/>
					<stop  offset="0.9523" style="stop-color:#C8AF32"/>
					<stop  offset="0.9926" style="stop-color:#F6D73E"/>
					<stop  offset="1" style="stop-color:#FFDF40"/>
				</linearGradient>
				<path style="fill:url(#SVGID_00000042015229504781003390000004286030423541059238_);" d="M230.6,374.5L230.6,374.5
					c1,0,1.9-0.7,1.9-1.6c0-1-0.8-1.8-1.8-1.8h-52.6c-1,0-1.9,0.7-1.9,1.6c0,1,0.8,1.8,1.8,1.8h2.7c1,0,1.8,0.7,1.8,1.7
					c2,9.1,3.7,20.4,3.7,33.5c0,13.5-1.7,25.2-3.7,34.5c0,0.1,0,0.7-0.6,1.2c-0.3,0.3-0.8,0.5-1.3,0.5h-2.6c-1,0-1.9,0.7-1.9,1.6
					c0,1,0.8,1.8,1.8,1.8h52.6c1,0,1.9-0.7,1.9-1.6c0-1-0.8-1.8-1.8-1.8H228c-1,0-1.8-0.7-1.8-1.7c-2.6-8.6-5.1-20.7-5-35.4
					c0.1-12.3,2.2-22.7,4.4-30.6C226.3,376,228.3,374.5,230.6,374.5z"/>
			</g>
			<line class="st23" x1="204.9" y1="288.5" x2="203.4" y2="366.6"/>
			<path class="st24" d="M229.1,375.9h-49.3c-3.8,0-6.8-2.9-6.8-6.5v-2c0-3.6,3-6.5,6.8-6.5h49.3c3.8,0,6.8,2.9,6.8,6.5v2
				C235.9,373.1,232.8,375.9,229.1,375.9z"/>
			<g>
				
					<linearGradient id="SVGID_00000080909294621060609450000008551363878453928594_" gradientUnits="userSpaceOnUse" x1="176.0605" y1="257.3384" x2="232.3057" y2="257.3384" gradientTransform="matrix(1 0 0 -1 0 502)">
					<stop  offset="0" style="stop-color:#000000"/>
					<stop  offset="0.3726" style="stop-color:#020200"/>
					<stop  offset="0.5069" style="stop-color:#090802"/>
					<stop  offset="0.6026" style="stop-color:#141205"/>
					<stop  offset="0.68" style="stop-color:#252109"/>
					<stop  offset="0.7463" style="stop-color:#3B340F"/>
					<stop  offset="0.805" style="stop-color:#574C16"/>
					<stop  offset="0.8581" style="stop-color:#77681E"/>
					<stop  offset="0.9069" style="stop-color:#9D8927"/>
					<stop  offset="0.9523" style="stop-color:#C8AF32"/>
					<stop  offset="0.9926" style="stop-color:#F6D73E"/>
					<stop  offset="1" style="stop-color:#FFDF40"/>
				</linearGradient>
				<path style="fill:url(#SVGID_00000080909294621060609450000008551363878453928594_);" d="M230.4,208.9L230.4,208.9
					c1,0,1.9-0.7,1.9-1.6c0-1-0.8-1.8-1.8-1.8H178c-1,0-1.9,0.7-1.9,1.6c0,1,0.8,1.8,1.8,1.8h2.7c1,0,1.8,0.7,1.8,1.7
					c2,9.1,3.7,20.4,3.7,33.5c0,13.5-1.7,25.2-3.7,34.5c0,0.1,0,0.7-0.6,1.2c-0.3,0.3-0.8,0.5-1.3,0.5h-2.6c-1,0-1.9,0.7-1.9,1.6
					c0,1,0.8,1.8,1.8,1.8h52.6c1,0,1.9-0.7,1.9-1.6c0-1-0.8-1.8-1.8-1.8h-2.7c-1,0-1.8-0.7-1.8-1.7c-2.6-8.6-5.1-20.7-5-35.4
					c0.1-12.3,2.2-22.7,4.4-30.6C226.1,210.3,228.1,208.9,230.4,208.9z"/>
			</g>
			<line class="st23" x1="204.9" y1="205.5" x2="203.4" y2="283.7"/>
			<path class="st24" d="M229.1,293h-49.3c-3.8,0-6.8-2.9-6.8-6.5v-2c0-3.6,3-6.5,6.8-6.5h49.3c3.8,0,6.8,2.9,6.8,6.5v2
				C235.9,290.1,232.8,293,229.1,293z"/>
			<g>
				
					<linearGradient id="SVGID_00000124858039098963094590000011041443277801456801_" gradientUnits="userSpaceOnUse" x1="174.1101" y1="340.2981" x2="230.3554" y2="340.2981" gradientTransform="matrix(1 0 0 -1 0 502)">
					<stop  offset="0" style="stop-color:#000000"/>
					<stop  offset="0.3726" style="stop-color:#020200"/>
					<stop  offset="0.5069" style="stop-color:#090802"/>
					<stop  offset="0.6026" style="stop-color:#141205"/>
					<stop  offset="0.68" style="stop-color:#252109"/>
					<stop  offset="0.7463" style="stop-color:#3B340F"/>
					<stop  offset="0.805" style="stop-color:#574C16"/>
					<stop  offset="0.8581" style="stop-color:#77681E"/>
					<stop  offset="0.9069" style="stop-color:#9D8927"/>
					<stop  offset="0.9523" style="stop-color:#C8AF32"/>
					<stop  offset="0.9926" style="stop-color:#F6D73E"/>
					<stop  offset="1" style="stop-color:#FFDF40"/>
				</linearGradient>
				<path style="fill:url(#SVGID_00000124858039098963094590000011041443277801456801_);" d="M228.4,126L228.4,126
					c1,0,1.9-0.7,1.9-1.6c0-1-0.8-1.8-1.8-1.8H176c-1,0-1.9,0.7-1.9,1.6c0,1,0.8,1.8,1.8,1.8h2.7c1,0,1.8,0.7,1.8,1.7
					c2,9.1,3.7,20.4,3.7,33.5c0,13.5-1.7,25.2-3.7,34.5c0,0.1,0,0.7-0.6,1.2c-0.3,0.3-0.8,0.5-1.3,0.5h-2.6c-1,0-1.9,0.7-1.9,1.6
					c0,1,0.8,1.8,1.8,1.8h52.6c1,0,1.9-0.7,1.9-1.6c0-1-0.8-1.8-1.8-1.8h-2.7c-1,0-1.8-0.7-1.8-1.7c-2.6-8.6-5.1-20.7-5-35.4
					c0.1-12.3,2.2-22.7,4.4-30.6C224.1,127.4,226.1,126,228.4,126z"/>
			</g>
			<path class="st24" d="M227.1,210h-49.3c-3.8,0-6.8-2.9-6.8-6.5v-2c0-3.6,3-6.5,6.8-6.5h49.3c3.8,0,6.8,2.9,6.8,6.5v2
				C233.9,207.1,230.9,210,227.1,210z"/>
			<line class="st23" x1="204.7" y1="122.6" x2="203.3" y2="195"/>
		</g>
		<path class="st24" d="M226.9,127.1h-49.3c-3.8,0-6.8-2.9-6.8-6.5v-2c0-3.6,3-6.5,6.8-6.5h49.3c3.8,0,6.8,2.9,6.8,6.5v2
			C233.6,124.1,230.6,127.1,226.9,127.1z"/>
	</g>
	<g>
		<g>
			
				<linearGradient id="SVGID_00000164478958489414198060000007097966183683458459_" gradientUnits="userSpaceOnUse" x1="368.1873" y1="457.0502" x2="424.4325" y2="457.0502" gradientTransform="matrix(1 0 0 -1 0 502)">
				<stop  offset="0" style="stop-color:#000000"/>
				<stop  offset="0.3726" style="stop-color:#020200"/>
				<stop  offset="0.5069" style="stop-color:#090802"/>
				<stop  offset="0.6026" style="stop-color:#141205"/>
				<stop  offset="0.68" style="stop-color:#252109"/>
				<stop  offset="0.7463" style="stop-color:#3B340F"/>
				<stop  offset="0.805" style="stop-color:#574C16"/>
				<stop  offset="0.8581" style="stop-color:#77681E"/>
				<stop  offset="0.9069" style="stop-color:#9D8927"/>
				<stop  offset="0.9523" style="stop-color:#C8AF32"/>
				<stop  offset="0.9926" style="stop-color:#F6D73E"/>
				<stop  offset="1" style="stop-color:#FFDF40"/>
			</linearGradient>
			<path style="fill:url(#SVGID_00000164478958489414198060000007097966183683458459_);" d="M422.5,6.3L422.5,6.3
				c1,0,1.9-0.7,1.9-1.8s-0.8-1.9-1.8-1.9H370c-1,0-1.9,0.7-1.9,1.8s0.8,1.9,1.8,1.9h2.7c1,0,1.8,0.9,1.8,1.8
				c2,9.8,3.7,22.1,3.7,36.3c0,14.6-1.7,27.3-3.7,37.4c0,0.1,0,0.7-0.6,1.3c-0.3,0.3-0.8,0.5-1.3,0.5h-2.6c-1,0-1.9,0.7-1.9,1.8
				c0,1.1,0.8,1.9,1.8,1.9h52.6c1,0,1.9-0.7,1.9-1.8c0-1.1-0.8-1.9-1.8-1.9h-2.7c-1,0-1.8-0.9-1.8-1.8c-2.6-9.3-5.1-22.5-5-38.4
				c0.1-13.3,2.2-24.7,4.4-33.3C418.3,7.9,420.3,6.3,422.5,6.3z"/>
		</g>
		<g>
			<g>
				
					<linearGradient id="SVGID_00000182490610456462052390000001178386734077106850_" gradientUnits="userSpaceOnUse" x1="370.6231" y1="97.3449" x2="426.8683" y2="97.3449" gradientTransform="matrix(1 0 0 -1 0 502)">
					<stop  offset="0" style="stop-color:#000000"/>
					<stop  offset="0.3726" style="stop-color:#020200"/>
					<stop  offset="0.5069" style="stop-color:#090802"/>
					<stop  offset="0.6026" style="stop-color:#141205"/>
					<stop  offset="0.68" style="stop-color:#252109"/>
					<stop  offset="0.7463" style="stop-color:#3B340F"/>
					<stop  offset="0.805" style="stop-color:#574C16"/>
					<stop  offset="0.8581" style="stop-color:#77681E"/>
					<stop  offset="0.9069" style="stop-color:#9D8927"/>
					<stop  offset="0.9523" style="stop-color:#C8AF32"/>
					<stop  offset="0.9926" style="stop-color:#F6D73E"/>
					<stop  offset="1" style="stop-color:#FFDF40"/>
				</linearGradient>
				<path style="fill:url(#SVGID_00000182490610456462052390000001178386734077106850_);" d="M424.9,366L424.9,366
					c1,0,1.9-0.7,1.9-1.8s-0.8-1.9-1.8-1.9h-52.6c-1,0-1.9,0.7-1.9,1.8s0.8,1.9,1.8,1.9h2.7c1,0,1.8,0.9,1.8,1.8
					c2,9.8,3.7,22.1,3.7,36.3c0,14.6-1.7,27.3-3.7,37.4c0,0.1,0,0.7-0.6,1.3c-0.3,0.3-0.8,0.5-1.3,0.5h-2.6c-1,0-1.9,0.7-1.9,1.8
					s0.8,1.9,1.8,1.9h52.6c1,0,1.9-0.7,1.9-1.8c0-1.1-0.8-1.9-1.8-1.9h-2.6c-1,0-1.8-0.9-1.8-1.8c-2.6-9.3-5.1-22.5-5-38.4
					c0.1-13.3,2.2-24.7,4.4-33.3C420.7,367.6,422.7,366,424.9,366z"/>
			</g>
			<line class="st29" x1="399.3" y1="272.7" x2="397.8" y2="357.5"/>
			<g>
				
					<linearGradient id="SVGID_00000106120900136324829450000009970701317214771356_" gradientUnits="userSpaceOnUse" x1="372.3708" y1="186.7106" x2="428.616" y2="186.7106" gradientTransform="matrix(1 0 0 -1 0 502)">
					<stop  offset="0" style="stop-color:#000000"/>
					<stop  offset="0.3726" style="stop-color:#020200"/>
					<stop  offset="0.5069" style="stop-color:#090802"/>
					<stop  offset="0.6026" style="stop-color:#141205"/>
					<stop  offset="0.68" style="stop-color:#252109"/>
					<stop  offset="0.7463" style="stop-color:#3B340F"/>
					<stop  offset="0.805" style="stop-color:#574C16"/>
					<stop  offset="0.8581" style="stop-color:#77681E"/>
					<stop  offset="0.9069" style="stop-color:#9D8927"/>
					<stop  offset="0.9523" style="stop-color:#C8AF32"/>
					<stop  offset="0.9926" style="stop-color:#F6D73E"/>
					<stop  offset="1" style="stop-color:#FFDF40"/>
				</linearGradient>
				<path style="fill:url(#SVGID_00000106120900136324829450000009970701317214771356_);" d="M426.7,276.6L426.7,276.6
					c1,0,1.9-0.7,1.9-1.8s-0.8-1.9-1.8-1.9h-52.6c-1,0-1.9,0.7-1.9,1.8c0,1.1,0.8,1.9,1.8,1.9h2.7c1,0,1.8,0.9,1.8,1.8
					c2,9.8,3.7,22.1,3.7,36.3c0,14.6-1.7,27.3-3.7,37.4c0,0.1,0,0.7-0.6,1.3c-0.3,0.3-0.8,0.5-1.3,0.5h-2.6c-1,0-1.9,0.7-1.9,1.8
					s0.8,1.9,1.8,1.9h52.6c1,0,1.9-0.7,1.9-1.8s-0.8-1.9-1.8-1.9H424c-1,0-1.8-0.9-1.8-1.8c-2.6-9.3-5.1-22.5-5-38.4
					c0.1-13.3,2.2-24.7,4.4-33.3C422.4,278.2,424.4,276.6,426.7,276.6z"/>
			</g>
			<path class="st24" d="M423.2,367.6h-48.8c-3.9,0-7-3.1-7-6.7v-2.8c0-3.7,3.2-6.7,7-6.7h48.8c3.9,0,7,3.1,7,6.7v2.8
				C430.1,364.5,427,367.6,423.2,367.6z"/>
			<path class="st24" d="M424.9,278.2h-48.8c-3.9,0-7-3.1-7-6.7v-2.8c0-3.7,3.2-6.7,7-6.7h48.8c3.9,0,7,3.1,7,6.7v2.8
				C431.9,275.1,428.7,278.2,424.9,278.2z"/>
			<g>
				
					<linearGradient id="SVGID_00000069356799427812735450000000772576294748508827_" gradientUnits="userSpaceOnUse" x1="370.3804" y1="277.0374" x2="426.6255" y2="277.0374" gradientTransform="matrix(1 0 0 -1 0 502)">
					<stop  offset="0" style="stop-color:#000000"/>
					<stop  offset="0.3726" style="stop-color:#020200"/>
					<stop  offset="0.5069" style="stop-color:#090802"/>
					<stop  offset="0.6026" style="stop-color:#141205"/>
					<stop  offset="0.68" style="stop-color:#252109"/>
					<stop  offset="0.7463" style="stop-color:#3B340F"/>
					<stop  offset="0.805" style="stop-color:#574C16"/>
					<stop  offset="0.8581" style="stop-color:#77681E"/>
					<stop  offset="0.9069" style="stop-color:#9D8927"/>
					<stop  offset="0.9523" style="stop-color:#C8AF32"/>
					<stop  offset="0.9926" style="stop-color:#F6D73E"/>
					<stop  offset="1" style="stop-color:#FFDF40"/>
				</linearGradient>
				<path style="fill:url(#SVGID_00000069356799427812735450000000772576294748508827_);" d="M424.7,186.3L424.7,186.3
					c1,0,1.9-0.7,1.9-1.8c0-1.1-0.8-1.9-1.8-1.9h-52.6c-1,0-1.9,0.7-1.9,1.8s0.8,1.9,1.8,1.9h2.7c1,0,1.8,0.9,1.8,1.8
					c2,9.8,3.7,22.1,3.7,36.3c0,14.6-1.7,27.3-3.7,37.4c0,0.1,0,0.7-0.6,1.3c-0.3,0.3-0.8,0.5-1.3,0.5h-2.6c-1,0-1.9,0.7-1.9,1.8
					s0.8,1.9,1.8,1.9h52.6c1,0,1.9-0.7,1.9-1.8s-0.8-1.9-1.8-1.9H422c-1,0-1.8-0.9-1.8-1.8c-2.6-9.3-5.1-22.5-5-38.4
					c0.1-13.3,2.2-24.7,4.4-33.3C420.4,187.9,422.4,186.3,424.7,186.3z"/>
			</g>
			<path class="st24" d="M423.2,277.5h-48.8c-3.9,0-7-3.1-7-6.7V268c0-3.7,3.2-6.7,7-6.7h48.8c3.9,0,7,3.1,7,6.7v2.8
				C430.1,274.5,427,277.5,423.2,277.5z"/>
			<g>
				
					<linearGradient id="SVGID_00000026160111561478050280000007866919859380834473_" gradientUnits="userSpaceOnUse" x1="368.4299" y1="367.0438" x2="424.6752" y2="367.0438" gradientTransform="matrix(1 0 0 -1 0 502)">
					<stop  offset="0" style="stop-color:#000000"/>
					<stop  offset="0.3726" style="stop-color:#020200"/>
					<stop  offset="0.5069" style="stop-color:#090802"/>
					<stop  offset="0.6026" style="stop-color:#141205"/>
					<stop  offset="0.68" style="stop-color:#252109"/>
					<stop  offset="0.7463" style="stop-color:#3B340F"/>
					<stop  offset="0.805" style="stop-color:#574C16"/>
					<stop  offset="0.8581" style="stop-color:#77681E"/>
					<stop  offset="0.9069" style="stop-color:#9D8927"/>
					<stop  offset="0.9523" style="stop-color:#C8AF32"/>
					<stop  offset="0.9926" style="stop-color:#F6D73E"/>
					<stop  offset="1" style="stop-color:#FFDF40"/>
				</linearGradient>
				<path style="fill:url(#SVGID_00000026160111561478050280000007866919859380834473_);" d="M422.7,96.3L422.7,96.3
					c1,0,1.9-0.7,1.9-1.8c0-1.1-0.8-1.9-1.8-1.9h-52.6c-1,0-1.9,0.7-1.9,1.8c0,1.1,0.8,1.9,1.8,1.9h2.7c1,0,1.8,0.9,1.8,1.8
					c2,9.8,3.7,22.1,3.7,36.3c0,14.6-1.7,27.3-3.7,37.4c0,0.1,0,0.7-0.6,1.3c-0.3,0.3-0.8,0.5-1.3,0.5h-2.6c-1,0-1.9,0.7-1.9,1.8
					c0,1.1,0.8,1.9,1.8,1.9h52.6c1,0,1.9-0.7,1.9-1.8s-0.8-1.9-1.8-1.9H420c-1,0-1.8-0.9-1.8-1.8c-2.6-9.3-5.1-22.5-5-38.4
					c0.1-13.3,2.2-24.7,4.4-33.3C418.5,97.9,420.5,96.3,422.7,96.3z"/>
			</g>
			<path class="st24" d="M421.2,187.5h-48.8c-3.9,0-7-3.1-7-6.7V178c0-3.7,3.2-6.7,7-6.7h48.8c3.9,0,7,3.1,7,6.7v2.8
				C428.3,184.5,425,187.5,421.2,187.5z"/>
		</g>
		<path class="st24" d="M420.9,97.5h-48.8c-3.9,0-7-3.1-7-6.7V88c0-3.7,3.2-6.7,7-6.7h48.8c3.9,0,7,3.1,7,6.7v2.8
			C427.9,94.5,424.8,97.5,420.9,97.5z"/>
	</g>
	<g>
		<path class="st33" d="M120.4,350.6c1.7-5.8,8.8-28.8,27.8-49.3c12.3-13.2,23.8-19.2,29.4-21.7"/>
		<g>
			<path d="M205.4,331.8"/>
			<path class="st34" d="M221.1,248.1c0.4,11-13.3,30.6-34.3,47.6c-21.1,17-42.5,25.9-52.3,22.5c-0.4-11,13.3-30.6,34.3-47.6
				S211.2,244.8,221.1,248.1z"/>
			<path class="st35" d="M134.4,318.4c10.4-12.4,24.2-26.7,41.6-40.6c16.2-13,31.7-22.5,45-29.6"/>
			<path class="st36" d="M141.5,310.2c3.3-1.7,9-4.1,16.3-4.6c5.4-0.3,10,0.4,13.1,1.3"/>
			<path class="st37" d="M149.3,302c3.3-1.7,9-4.1,16.3-4.6c5.4-0.3,9.9,0.4,13.1,1.3"/>
			<path class="st38" d="M157.6,293.7c3.2-1.7,8.6-4.1,15.7-4.5c5.2-0.3,9.6,0.4,12.6,1.3"/>
			<path class="st39" d="M167.3,285.1c3.3-1.7,8.9-4.1,16.2-4.6c5.3-0.3,9.9,0.4,13,1.3"/>
			<path class="st40" d="M178.6,275.8c3.2-1.7,8.6-4.1,15.7-4.5c5.2-0.3,9.6,0.4,12.6,1.3"/>
			<path class="st41" d="M191.7,266.1c2.7-1.2,7-2.7,12.3-2c4,0.4,7.1,1.9,9.3,3.2"/>
			<path class="st42" d="M195.9,263.2c2.3-1.6,6.1-3.7,11.2-4.1c3.8-0.2,6.9,0.7,9.2,1.7"/>
		</g>
	</g>
	<g>
		<g>
			
				<linearGradient id="SVGID_00000161610631243341783230000003426566388988238738_" gradientUnits="userSpaceOnUse" x1="294.4065" y1="453.8471" x2="350.6517" y2="453.8471" gradientTransform="matrix(1 0 0 -1 0 502)">
				<stop  offset="0" style="stop-color:#000000"/>
				<stop  offset="0.3726" style="stop-color:#020200"/>
				<stop  offset="0.5069" style="stop-color:#090802"/>
				<stop  offset="0.6026" style="stop-color:#141205"/>
				<stop  offset="0.68" style="stop-color:#252109"/>
				<stop  offset="0.7463" style="stop-color:#3B340F"/>
				<stop  offset="0.805" style="stop-color:#574C16"/>
				<stop  offset="0.8581" style="stop-color:#77681E"/>
				<stop  offset="0.9069" style="stop-color:#9D8927"/>
				<stop  offset="0.9523" style="stop-color:#C8AF32"/>
				<stop  offset="0.9926" style="stop-color:#F6D73E"/>
				<stop  offset="1" style="stop-color:#FFDF40"/>
			</linearGradient>
			<path style="fill:url(#SVGID_00000161610631243341783230000003426566388988238738_);" d="M348.7,8.2L348.7,8.2
				c1,0,1.9-0.7,1.9-1.8s-0.8-2-1.8-2h-52.6c-1,0-1.9,0.7-1.9,1.8s0.8,2,1.8,2h2.7c1,0,1.8,0.9,1.8,1.9c2,10.1,3.7,22.8,3.7,37.5
				c0,15.1-1.7,28.2-3.7,38.5c0,0.1,0,0.9-0.6,1.4c-0.3,0.3-0.8,0.5-1.3,0.5h-2.6c-1,0-1.9,0.7-1.9,1.8c0,1.1,0.8,2,1.8,2h52.6
				c1,0,1.9-0.7,1.9-1.8c0-1.1-0.8-2-1.8-2h-2.7c-1,0-1.8-0.9-1.8-1.9c-2.6-9.6-5.1-23.2-5-39.6c0.1-13.8,2.2-25.4,4.4-34.3
				C344.4,9.8,346.4,8.2,348.7,8.2z"/>
		</g>
		<g>
			<g>
				
					<linearGradient id="SVGID_00000101079780330189291720000010297694546020587905_" gradientUnits="userSpaceOnUse" x1="294.4065" y1="85.6002" x2="350.6517" y2="85.6002" gradientTransform="matrix(1 0 0 -1 0 502)">
					<stop  offset="0" style="stop-color:#000000"/>
					<stop  offset="0.3726" style="stop-color:#020200"/>
					<stop  offset="0.5069" style="stop-color:#090802"/>
					<stop  offset="0.6026" style="stop-color:#141205"/>
					<stop  offset="0.68" style="stop-color:#252109"/>
					<stop  offset="0.7463" style="stop-color:#3B340F"/>
					<stop  offset="0.805" style="stop-color:#574C16"/>
					<stop  offset="0.8581" style="stop-color:#77681E"/>
					<stop  offset="0.9069" style="stop-color:#9D8927"/>
					<stop  offset="0.9523" style="stop-color:#C8AF32"/>
					<stop  offset="0.9926" style="stop-color:#F6D73E"/>
					<stop  offset="1" style="stop-color:#FFDF40"/>
				</linearGradient>
				<path style="fill:url(#SVGID_00000101079780330189291720000010297694546020587905_);" d="M348.7,384.9L348.7,384.9
					c1,0,1.9-0.6,1.9-1.4c0-0.9-0.8-1.6-1.8-1.6h-52.6c-1,0-1.9,0.6-1.9,1.4c0,0.9,0.8,1.6,1.8,1.6h2.7c1,0,1.8,0.6,1.8,1.5
					c2,8,3.7,18,3.7,29.6c0,12-1.7,22.2-3.7,30.4c0,0.1,0,0.6-0.6,1.1c-0.3,0.3-0.8,0.4-1.3,0.4h-2.6c-1,0-1.9,0.6-1.9,1.4
					c0,0.9,0.8,1.6,1.8,1.6h52.6c1,0,1.9-0.6,1.9-1.4c0-0.9-0.8-1.6-1.8-1.6h-2.7c-1,0-1.8-0.6-1.8-1.5c-2.6-7.6-5.1-18.4-5-31.3
					c0.1-10.9,2.2-20.1,4.4-27.1C344.4,386.2,346.4,384.9,348.7,384.9z"/>
			</g>
			<line class="st45" x1="323" y1="309" x2="321.5" y2="378"/>
			<path class="st24" d="M347.6,386.2h-50.1c-3.4,0-6.3-2.8-6.3-6.1V379c0-3.3,2.9-6.1,6.3-6.1h50.1c3.4,0,6.3,2.8,6.3,6.1v1.1
				C354,383.4,351.1,386.2,347.6,386.2z"/>
			<g>
				
					<linearGradient id="SVGID_00000023272671381734592900000013482901009280035004_" gradientUnits="userSpaceOnUse" x1="294.1638" y1="231.6605" x2="350.4089" y2="231.6605" gradientTransform="matrix(1 0 0 -1 0 502)">
					<stop  offset="0" style="stop-color:#000000"/>
					<stop  offset="0.3726" style="stop-color:#020200"/>
					<stop  offset="0.5069" style="stop-color:#090802"/>
					<stop  offset="0.6026" style="stop-color:#141205"/>
					<stop  offset="0.68" style="stop-color:#252109"/>
					<stop  offset="0.7463" style="stop-color:#3B340F"/>
					<stop  offset="0.805" style="stop-color:#574C16"/>
					<stop  offset="0.8581" style="stop-color:#77681E"/>
					<stop  offset="0.9069" style="stop-color:#9D8927"/>
					<stop  offset="0.9523" style="stop-color:#C8AF32"/>
					<stop  offset="0.9926" style="stop-color:#F6D73E"/>
					<stop  offset="1" style="stop-color:#FFDF40"/>
				</linearGradient>
				<path style="fill:url(#SVGID_00000023272671381734592900000013482901009280035004_);" d="M348.5,238.8L348.5,238.8
					c1,0,1.9-0.6,1.9-1.4c0-0.9-0.8-1.6-1.8-1.6h-52.6c-1,0-1.9,0.6-1.9,1.4c0,0.9,0.8,1.6,1.8,1.6h2.7c1,0,1.8,0.6,1.8,1.5
					c2,8,3.7,18,3.7,29.6c0,12-1.7,22.2-3.7,30.4c0,0.1,0,0.6-0.6,1.1c-0.3,0.3-0.8,0.4-1.3,0.4H296c-1,0-1.9,0.6-1.9,1.4
					c0,0.9,0.8,1.6,1.8,1.6h52.6c1,0,1.9-0.6,1.9-1.4c0-0.9-0.8-1.6-1.8-1.6h-2.7c-1,0-1.8-0.6-1.8-1.5c-2.6-7.6-5.1-18.4-5-31.3
					c0.1-10.9,2.2-20.1,4.4-27.1C344.2,240.1,346.2,238.8,348.5,238.8z"/>
			</g>
			<line class="st45" x1="323" y1="235.7" x2="321.5" y2="304.7"/>
			<path class="st24" d="M347.6,312.9h-50.1c-3.4,0-6.3-2.8-6.3-6.1v-1.1c0-3.3,2.9-6.1,6.3-6.1h50.1c3.4,0,6.3,2.8,6.3,6.1v1.1
				C354,310.3,351.1,312.9,347.6,312.9z"/>
			<g>
				
					<linearGradient id="SVGID_00000134962302575568769130000007539775018533467548_" gradientUnits="userSpaceOnUse" x1="292.2134" y1="304.9041" x2="348.4586" y2="304.9041" gradientTransform="matrix(1 0 0 -1 0 502)">
					<stop  offset="0" style="stop-color:#000000"/>
					<stop  offset="0.3726" style="stop-color:#020200"/>
					<stop  offset="0.5069" style="stop-color:#090802"/>
					<stop  offset="0.6026" style="stop-color:#141205"/>
					<stop  offset="0.68" style="stop-color:#252109"/>
					<stop  offset="0.7463" style="stop-color:#3B340F"/>
					<stop  offset="0.805" style="stop-color:#574C16"/>
					<stop  offset="0.8581" style="stop-color:#77681E"/>
					<stop  offset="0.9069" style="stop-color:#9D8927"/>
					<stop  offset="0.9523" style="stop-color:#C8AF32"/>
					<stop  offset="0.9926" style="stop-color:#F6D73E"/>
					<stop  offset="1" style="stop-color:#FFDF40"/>
				</linearGradient>
				<path style="fill:url(#SVGID_00000134962302575568769130000007539775018533467548_);" d="M346.5,165.6L346.5,165.6
					c1,0,1.9-0.6,1.9-1.4c0-0.9-0.8-1.6-1.8-1.6h-52.6c-1,0-1.9,0.6-1.9,1.4c0,0.9,0.8,1.6,1.8,1.6h2.7c1,0,1.8,0.6,1.8,1.5
					c2,8,3.7,18,3.7,29.6c0,12-1.7,22.2-3.7,30.4c0,0.1,0,0.6-0.6,1.1c-0.3,0.3-0.8,0.4-1.3,0.4H294c-1,0-1.9,0.6-1.9,1.4
					c0,0.9,0.8,1.6,1.8,1.6h52.6c1,0,1.9-0.6,1.9-1.4c0-0.9-0.8-1.6-1.8-1.6h-2.7c-1,0-1.8-0.6-1.8-1.5c-2.6-7.6-5.1-18.4-5-31.3
					c0.1-10.9,2.2-20.1,4.4-27.1C342.3,166.9,344.2,165.6,346.5,165.6z"/>
			</g>
			<path class="st24" d="M345.6,239.8h-50.1c-3.4,0-6.3-2.8-6.3-6.1v-1.1c0-3.3,2.9-6.1,6.3-6.1h50.1c3.4,0,6.3,2.8,6.3,6.1v1.1
				C352,237,349.2,239.8,345.6,239.8z"/>
			<line class="st45" x1="322.8" y1="162.6" x2="321.4" y2="226.5"/>
			<line class="st45" x1="320.9" y1="89.4" x2="319.4" y2="158.3"/>
		</g>
		<path class="st24" d="M345,128.7h-49.3c-3.8,0-6.8-2.9-6.8-6.5v-2c0-3.6,3-6.5,6.8-6.5H345c3.8,0,6.8,2.9,6.8,6.5v2
			C351.7,125.7,348.7,128.7,345,128.7z"/>
	</g>
	<g>
		<path class="st48" d="M200.9,170.4c2-6.4,10.4-32.1,33.3-55.1c14.7-14.7,28.5-21.4,35.2-24.1"/>
		<g>
			<path d="M302.6,149.5"/>
			<path class="st49" d="M321.5,56.2c0.6,12.3-15.9,34.2-41,53.2s-50.9,28.9-62.7,25.2c-0.6-12.3,15.9-34.2,41-53.2
				C283.9,62.4,309.6,52.3,321.5,56.2z"/>
			<path class="st50" d="M217.8,134.4c12.5-13.8,28.9-29.7,49.8-45.3c19.4-14.5,38-25.2,53.9-33"/>
			<path class="st51" d="M226.2,125.3c4-1.9,10.8-4.6,19.5-5.1c6.4-0.4,11.9,0.4,15.6,1.4"/>
			<path class="st52" d="M235.4,116.3c4-1.9,10.8-4.6,19.5-5.1c6.4-0.4,11.9,0.4,15.6,1.4"/>
			<path class="st53" d="M245.4,107c3.9-1.9,10.4-4.6,18.9-5c6.2-0.4,11.5,0.5,15.2,1.5"/>
			<path class="st54" d="M257,97.3c4-1.9,10.6-4.6,19.3-5.1c6.4-0.4,11.8,0.5,15.5,1.4"/>
			<path class="st55" d="M270.6,86.9c3.9-1.9,10.4-4.6,18.9-5c6.2-0.4,11.5,0.5,15.2,1.5"/>
			<path class="st56" d="M286.3,76.1c3.1-1.4,8.3-3,14.7-2.2c4.8,0.5,8.5,2.1,11.1,3.6"/>
			<path class="st57" d="M291.3,72.9c2.8-1.8,7.3-4.2,13.4-4.5c4.4-0.2,8.3,0.9,11,1.9"/>
		</g>
	</g>
	<g>
		<path class="st58" d="M400.5,258.9c1.1-3.2,6.1-15.9,19.3-27.1c8.5-7.3,16.6-10.6,20.5-12"/>
		<g>
			<path d="M459.7,248.6"/>
			<path class="st59" d="M470.6,202.5c0.3,6.1-9.2,16.9-23.8,26.3c-14.6,9.4-29.6,14.3-36.5,12.4c-0.3-6.1,9.2-16.9,23.8-26.3
				C448.8,205.5,463.7,200.6,470.6,202.5z"/>
			<path class="st60" d="M410.3,241.2c7.3-6.8,16.9-14.6,28.9-22.3c11.3-7.2,22.1-12.4,31.4-16.3"/>
			<path class="st61" d="M415.2,236.7c2.3-1,6.3-2.2,11.3-2.6c3.8-0.2,6.9,0.2,9.1,0.6"/>
			<path class="st62" d="M420.6,232.2c2.3-1,6.2-2.2,11.3-2.6c3.8-0.2,6.9,0.2,9.1,0.6"/>
			<path class="st63" d="M426.4,227.6c2.2-1,6.1-2.2,11-2.5c3.7-0.2,6.7,0.2,8.9,0.7"/>
			<path class="st64" d="M433.1,222.8c2.3-1,6.2-2.2,11.2-2.6c3.8-0.2,6.9,0.2,9.1,0.7"/>
			<path class="st63" d="M441,217.7c2.2-1,6.1-2.2,11-2.5c3.7-0.2,6.7,0.2,8.9,0.7"/>
			<path class="st65" d="M450.2,212.4c1.9-0.6,4.9-1.5,8.5-1.1c2.8,0.2,5,1.1,6.4,1.8"/>
			<path class="st66" d="M453.1,210.8c1.6-0.9,4.2-2,7.8-2.2c2.7-0.1,4.8,0.4,6.4,1"/>
		</g>
	</g>
	<g>
		<path class="st67" d="M400.4,341.1c1.3-4.6,7-23.1,22.4-39.6c10-10.7,19.3-15.5,23.7-17.4"/>
		<g>
			<path d="M469,326.1"/>
			<path class="st68" d="M481.7,258.9c0.4,8.9-10.6,24.6-27.6,38.2s-34.3,20.8-42.2,18.2c-0.4-8.9,10.6-24.6,27.6-38.2
				C456.4,263.4,473.7,256.2,481.7,258.9z"/>
			<path class="st69" d="M411.7,315.2c8.4-9.9,19.5-21.4,33.6-32.6c13.1-10.4,25.6-18,36.4-23.7"/>
			<path class="st70" d="M417.5,308.7c2.7-1.4,7.2-3.3,13.2-3.6c4.3-0.3,8,0.3,10.5,1"/>
			<path class="st71" d="M423.7,302.2c2.7-1.4,7.2-3.3,13.1-3.6c4.3-0.3,8,0.3,10.5,1"/>
			<path class="st72" d="M430.4,295.5c2.7-1.4,7-3.3,12.8-3.6c4.2-0.3,7.8,0.3,10.2,1.1"/>
			<path class="st73" d="M438.2,288.5c2.7-1.4,7.2-3.3,13-3.6c4.3-0.3,8,0.3,10.4,1.1"/>
			<path class="st72" d="M447.4,281c2.7-1.4,7-3.3,12.8-3.6c4.2-0.3,7.8,0.3,10.2,1.1"/>
			<path class="st74" d="M458,273.3c2.1-1,5.7-2.1,10-1.6c3.2,0.4,5.8,1.6,7.5,2.6"/>
			<path class="st75" d="M461.3,271c1.9-1.3,5-3,9-3.2c3-0.1,5.5,0.6,7.4,1.4"/>
		</g>
	</g>
	<g>
		<path class="st76" d="M393.9,120.3c1.3-3.6,7-17.9,22.4-30.7c10-8.2,19.2-12,23.7-13.5"/>
		<g>
			<path d="M462.4,108.7"/>
			<path class="st77" d="M475,56.6c0.4,6.8-10.6,19-27.6,29.7c-17,10.6-34.3,16.1-42.2,14.1c-0.4-6.8,10.6-19,27.6-29.7
				C449.8,60,467.2,54.5,475,56.6z"/>
			<path class="st78" d="M405.2,100.3c8.4-7.7,19.5-16.5,33.5-25.3c13.1-8.1,25.6-14,36.4-18.4"/>
			<path class="st79" d="M411,95.1c2.7-1.1,7.2-2.6,13.2-2.9c4.3-0.2,8,0.2,10.5,0.7"/>
			<path class="st80" d="M417.2,90.1c2.7-1.1,7.2-2.6,13.1-2.9c4.3-0.2,8,0.3,10.5,0.7"/>
			<path class="st81" d="M423.8,85c2.7-1.1,7-2.6,12.8-2.8c4.2-0.2,7.8,0.3,10.2,0.9"/>
			<path class="st82" d="M431.7,79.5c2.7-1.1,7.2-2.6,13-2.9c4.3-0.2,8,0.3,10.4,0.7"/>
			<path class="st81" d="M440.9,73.8c2.7-1.1,7-2.6,12.8-2.8c4.2-0.2,7.8,0.3,10.2,0.9"/>
			<path class="st83" d="M451.4,67.7c2.1-0.7,5.7-1.7,10-1.3c3.2,0.3,5.8,1.2,7.5,2"/>
			<path class="st84" d="M454.8,66c1.9-1,5-2.3,9-2.5c3-0.1,5.5,0.4,7.4,1.1"/>
		</g>
	</g>
	<g>
		<path class="st85" d="M116.3,434.6c1.7-7.2,8.5-36.1,27.4-61.7c12.2-16.7,23.5-24.1,29.1-27.1"/>
		<g>
			<path d="M200.3,411.1"/>
			<path class="st86" d="M215.7,306.4c0.4,13.8-13.1,38.3-33.8,59.6c-20.7,21.4-41.9,32.5-51.7,28.3c-0.4-13.8,13.1-38.3,33.8-59.6
				C184.7,313.4,205.9,302.2,215.7,306.4z"/>
			<path class="st87" d="M130.2,394.2c10.3-15.5,23.8-33.3,41-50.8c16-16.2,31.3-28.2,44.5-37"/>
			<path class="st88" d="M137.2,383.9c3.3-2.1,8.9-5.1,16.1-5.8c5.3-0.4,9.8,0.5,13,1.6"/>
			<path class="st89" d="M144.8,373.8c3.3-2.1,8.9-5.1,16.1-5.8c5.3-0.4,9.8,0.5,12.9,1.6"/>
			<path class="st90" d="M153,363.4c3.2-2.1,8.5-5.1,15.5-5.7c5.2-0.4,9.5,0.5,12.5,1.6"/>
			<path class="st91" d="M162.7,352.6c3.3-2.1,8.8-5.1,16-5.8c5.3-0.4,9.6,0.5,12.8,1.6"/>
			<path class="st92" d="M173.8,340.9c3.2-2.1,8.5-5.1,15.5-5.7c5.2-0.4,9.4,0.5,12.5,1.6"/>
			<path class="st93" d="M186.7,328.8c2.6-1.5,6.9-3.3,12.2-2.6c3.9,0.6,7,2.5,9.2,4.1"/>
			<path class="st94" d="M190.8,325.2c2.2-2,6-4.7,11.1-5c3.7-0.2,6.9,1,9,2.1"/>
		</g>
	</g>
	<path class="st95" d="M172.9,284.4"/>
	<g>
		<g>
			<g>
				<path class="st96" d="M379.9,408.9H134.5c-7.2,0-13-5.6-13-12.5V92.7c0-4.6,3.9-8.3,8.6-8.3h249.7V408.9z"/>
				<polyline class="st97" points="136,408.9 376.4,422.2 375.9,408.8 				"/>
				<line class="st98" x1="152" y1="409.5" x2="375.5" y2="412.1"/>
				<line class="st98" x1="189.2" y1="412.1" x2="375.5" y2="415.3"/>
				<line class="st98" x1="275.7" y1="416.4" x2="375.5" y2="418.5"/>
				<line class="st99" x1="155.9" y1="84.3" x2="155.9" y2="408.9"/>
				<path class="st100" d="M155.9,408.9h-23c-6.7,0-12-5.1-12-11.5v-41c0.6-2.2,1.7-5.1,3.7-5.7c4.3-1,8.1,10.8,13.8,10.4
					c4.8-0.4,6.1-9.3,11-9.4c2.7-0.1,5,2.6,6.4,4.7L155.9,408.9L155.9,408.9z"/>
				<g>
					<path class="st101" d="M379.9,163.4c-2.4,3.5-10.8,14.5-26.6,19.2c-21,6.2-38.3-3.7-41-5.3c-14.4-8.5-23.4-18.7-25.5-21.4
						c-12-15.4-43.4-38.5-130.8-71.5c74.6,0,149.4,0,224,0C379.9,110.7,379.9,137,379.9,163.4z"/>
					<path class="st101" d="M265.9,120.1c-1,2.2-2.3,5.3-4.4,8.6c-9.3,15.1-33.3,26.5-43.6,28.2c-20.2,3.3-43.4-24.3-52.9-72.6"/>
				</g>
				<g>
					<path class="st102" d="M379.9,328.8c-2.4-3.5-10.8-14.5-26.6-19.2c-21-6.2-38.3,3.7-41,5.3c-14.4,8.5-23.4,18.7-25.5,21.4
						c-12,15.4-43.4,38.5-130.8,71.5c74.6,0,149.4,0,224,0C379.9,381.5,379.9,355.2,379.9,328.8z"/>
				</g>
			</g>
		</g>
	</g>
	<g>
		
			<linearGradient id="SVGID_00000016051446300992004240000002460267924124154019_" gradientUnits="userSpaceOnUse" x1="87.7419" y1="174.6991" x2="143.9628" y2="174.6991" gradientTransform="matrix(1 0 0 -1 0 502)">
			<stop  offset="0" style="stop-color:#000000"/>
			<stop  offset="0.3726" style="stop-color:#020200"/>
			<stop  offset="0.5069" style="stop-color:#090802"/>
			<stop  offset="0.6026" style="stop-color:#141205"/>
			<stop  offset="0.68" style="stop-color:#252109"/>
			<stop  offset="0.7463" style="stop-color:#3B340F"/>
			<stop  offset="0.805" style="stop-color:#574C16"/>
			<stop  offset="0.8581" style="stop-color:#77681E"/>
			<stop  offset="0.9069" style="stop-color:#9D8927"/>
			<stop  offset="0.9523" style="stop-color:#C8AF32"/>
			<stop  offset="0.9926" style="stop-color:#F6D73E"/>
			<stop  offset="1" style="stop-color:#FFDF40"/>
		</linearGradient>
		<path style="fill:url(#SVGID_00000016051446300992004240000002460267924124154019_);" d="M142,291.6L142,291.6
			c1,0,1.9-0.7,1.9-1.6c0-1-0.8-1.8-1.8-1.8H89.7c-1,0-1.9,0.7-1.9,1.6c0,1,0.8,1.8,1.8,1.8h2.7c1,0,1.8,0.7,1.8,1.7
			c2,9.1,3.7,20.4,3.7,33.5c0,13.5-1.7,25.2-3.7,34.5c0,0.1,0,0.7-0.6,1.2c-0.3,0.3-0.8,0.5-1.3,0.5h-2.4c-1,0-1.9,0.7-1.9,1.6
			c0,1,0.8,1.8,1.8,1.8h52.6c1,0,1.9-0.7,1.9-1.6c0-1-0.8-1.8-1.8-1.8h-2.7c-1,0-1.8-0.7-1.8-1.7c-2.6-8.6-5.1-20.7-5-35.4
			c0.1-12.3,2.2-22.7,4.4-30.6C137.8,293,139.8,291.6,142,291.6z"/>
	</g>
	<g>
		<g>
			
				<linearGradient id="SVGID_00000117658346171625282900000003722376676141867662_" gradientUnits="userSpaceOnUse" x1="85.4957" y1="423.6848" x2="141.741" y2="423.6848" gradientTransform="matrix(1 0 0 -1 0 502)">
				<stop  offset="0" style="stop-color:#000000"/>
				<stop  offset="0.3726" style="stop-color:#020200"/>
				<stop  offset="0.5069" style="stop-color:#090802"/>
				<stop  offset="0.6026" style="stop-color:#141205"/>
				<stop  offset="0.68" style="stop-color:#252109"/>
				<stop  offset="0.7463" style="stop-color:#3B340F"/>
				<stop  offset="0.805" style="stop-color:#574C16"/>
				<stop  offset="0.8581" style="stop-color:#77681E"/>
				<stop  offset="0.9069" style="stop-color:#9D8927"/>
				<stop  offset="0.9523" style="stop-color:#C8AF32"/>
				<stop  offset="0.9926" style="stop-color:#F6D73E"/>
				<stop  offset="1" style="stop-color:#FFDF40"/>
			</linearGradient>
			<path style="fill:url(#SVGID_00000117658346171625282900000003722376676141867662_);" d="M139.8,42.6L139.8,42.6
				c1,0,1.9-0.7,1.9-1.6c0-1-0.8-1.8-1.8-1.8H87.4c-1,0-1.9,0.7-1.9,1.6c0,1,0.8,1.8,1.8,1.8h2.7c1,0,1.8,0.7,1.8,1.7
				c2,9.1,3.7,20.4,3.7,33.5c0,13.5-1.7,25.2-3.7,34.5c0,0.1,0,0.7-0.6,1.2c-0.3,0.3-0.8,0.5-1.3,0.5h-2.3c-1,0-1.9,0.7-1.9,1.6
				c0,1,0.8,1.8,1.8,1.8h52.6c1,0,1.9-0.7,1.9-1.6c0-1-0.8-1.8-1.8-1.8h-2.7c-1,0-1.8-0.7-1.8-1.7c-2.6-8.6-5.1-20.7-5-35.4
				c0.1-12.3,2.2-22.7,4.4-30.6C135.6,44.1,137.6,42.6,139.8,42.6z"/>
		</g>
		<g>
			<g>
				
					<linearGradient id="SVGID_00000168078965967003134920000004158007903944042138_" gradientUnits="userSpaceOnUse" x1="87.9846" y1="92.0598" x2="144.2299" y2="92.0598" gradientTransform="matrix(1 0 0 -1 0 502)">
					<stop  offset="0" style="stop-color:#000000"/>
					<stop  offset="0.3726" style="stop-color:#020200"/>
					<stop  offset="0.5069" style="stop-color:#090802"/>
					<stop  offset="0.6026" style="stop-color:#141205"/>
					<stop  offset="0.68" style="stop-color:#252109"/>
					<stop  offset="0.7463" style="stop-color:#3B340F"/>
					<stop  offset="0.805" style="stop-color:#574C16"/>
					<stop  offset="0.8581" style="stop-color:#77681E"/>
					<stop  offset="0.9069" style="stop-color:#9D8927"/>
					<stop  offset="0.9523" style="stop-color:#C8AF32"/>
					<stop  offset="0.9926" style="stop-color:#F6D73E"/>
					<stop  offset="1" style="stop-color:#FFDF40"/>
				</linearGradient>
				<path style="fill:url(#SVGID_00000168078965967003134920000004158007903944042138_);" d="M142.3,374.2L142.3,374.2
					c1,0,1.9-0.7,1.9-1.6c0-1-0.8-1.8-1.8-1.8H89.8c-1,0-1.9,0.7-1.9,1.6c0,1,0.8,1.8,1.8,1.8h2.7c1,0,1.8,0.7,1.8,1.7
					c2,9.1,3.7,20.4,3.7,33.5c0,13.5-1.7,25.2-3.7,34.5c0,0.1,0,0.7-0.6,1.2c-0.3,0.3-0.8,0.5-1.3,0.5h-2.6c-1,0-1.9,0.7-1.9,1.6
					c0,1,0.8,1.8,1.8,1.8h52.6c1,0,1.9-0.7,1.9-1.6c0-1-0.8-1.8-1.8-1.8h-2.7c-1,0-1.8-0.7-1.8-1.7c-2.6-8.6-5.1-20.7-5-35.4
					c0.1-12.3,2.2-22.7,4.4-30.6C138.1,375.6,140.1,374.2,142.3,374.2z"/>
			</g>
			<path class="st24" d="M140.7,375.6H91.4c-3.8,0-6.8-2.9-6.8-6.5v-2c0-3.6,3-6.5,6.8-6.5h49.3c3.8,0,6.8,2.9,6.8,6.5v2
				C147.5,372.7,144.5,375.6,140.7,375.6z"/>
			<g>
				
					<linearGradient id="SVGID_00000143615695781092438670000002882455386832506015_" gradientUnits="userSpaceOnUse" x1="87.7135" y1="257.7655" x2="143.9588" y2="257.7655" gradientTransform="matrix(1 0 0 -1 0 502)">
					<stop  offset="0" style="stop-color:#000000"/>
					<stop  offset="0.3726" style="stop-color:#020200"/>
					<stop  offset="0.5069" style="stop-color:#090802"/>
					<stop  offset="0.6026" style="stop-color:#141205"/>
					<stop  offset="0.68" style="stop-color:#252109"/>
					<stop  offset="0.7463" style="stop-color:#3B340F"/>
					<stop  offset="0.805" style="stop-color:#574C16"/>
					<stop  offset="0.8581" style="stop-color:#77681E"/>
					<stop  offset="0.9069" style="stop-color:#9D8927"/>
					<stop  offset="0.9523" style="stop-color:#C8AF32"/>
					<stop  offset="0.9926" style="stop-color:#F6D73E"/>
					<stop  offset="1" style="stop-color:#FFDF40"/>
				</linearGradient>
				<path style="fill:url(#SVGID_00000143615695781092438670000002882455386832506015_);" d="M142,208.5L142,208.5
					c1,0,1.9-0.7,1.9-1.6c0-1-0.8-1.8-1.8-1.8H89.6c-1,0-1.9,0.7-1.9,1.6c0,1,0.8,1.8,1.8,1.8h2.7c1,0,1.8,0.7,1.8,1.7
					c2,9.1,3.7,20.4,3.7,33.5c0,13.5-1.7,25.2-3.7,34.5c0,0.1,0,0.7-0.6,1.2c-0.3,0.3-0.8,0.5-1.3,0.5h-2.3c-1,0-1.9,0.7-1.9,1.6
					c0,1,0.8,1.8,1.8,1.8h52.6c1,0,1.9-0.7,1.9-1.6c0-1-0.8-1.8-1.8-1.8h-2.7c-1,0-1.8-0.7-1.8-1.7c-2.6-8.6-5.1-20.7-5-35.4
					c0.1-12.3,2.2-22.7,4.4-30.6C137.8,210,139.8,208.5,142,208.5z"/>
			</g>
			<path class="st24" d="M140.7,292.7H91.4c-3.8,0-6.8-2.9-6.8-6.5v-2c0-3.6,3-6.5,6.8-6.5h49.3c3.8,0,6.8,2.9,6.8,6.5v2
				C147.5,289.7,144.5,292.7,140.7,292.7z"/>
			<g>
				
					<linearGradient id="SVGID_00000181800363674435109350000010206376268376986031_" gradientUnits="userSpaceOnUse" x1="85.7915" y1="340.7252" x2="142.0367" y2="340.7252" gradientTransform="matrix(1 0 0 -1 0 502)">
					<stop  offset="0" style="stop-color:#000000"/>
					<stop  offset="0.3726" style="stop-color:#020200"/>
					<stop  offset="0.5069" style="stop-color:#090802"/>
					<stop  offset="0.6026" style="stop-color:#141205"/>
					<stop  offset="0.68" style="stop-color:#252109"/>
					<stop  offset="0.7463" style="stop-color:#3B340F"/>
					<stop  offset="0.805" style="stop-color:#574C16"/>
					<stop  offset="0.8581" style="stop-color:#77681E"/>
					<stop  offset="0.9069" style="stop-color:#9D8927"/>
					<stop  offset="0.9523" style="stop-color:#C8AF32"/>
					<stop  offset="0.9926" style="stop-color:#F6D73E"/>
					<stop  offset="1" style="stop-color:#FFDF40"/>
				</linearGradient>
				<path style="fill:url(#SVGID_00000181800363674435109350000010206376268376986031_);" d="M140.2,125.6L140.2,125.6
					c1,0,1.9-0.7,1.9-1.6c0-1-0.8-1.8-1.8-1.8H87.7c-1,0-1.9,0.7-1.9,1.6c0,1,0.8,1.8,1.8,1.8h2.7c1,0,1.8,0.7,1.8,1.7
					c2,9.1,3.7,20.4,3.7,33.5c0,13.5-1.7,25.2-3.7,34.5c0,0.1,0,0.7-0.6,1.2c-0.3,0.3-0.8,0.5-1.3,0.5h-2.6c-1,0-1.9,0.7-1.9,1.6
					c0,1,0.8,1.8,1.8,1.8h52.6c1,0,1.9-0.7,1.9-1.6c0-1-0.8-1.8-1.8-1.8h-2.7c-1,0-1.8-0.7-1.8-1.7c-2.6-8.6-5.1-20.7-5-35.4
					c0.1-12.3,2.2-22.7,4.4-30.6C135.8,127.1,137.8,125.6,140.2,125.6z"/>
			</g>
			<path class="st24" d="M138.8,209.7H89.5c-3.8,0-6.8-2.9-6.8-6.5v-2c0-3.6,3-6.5,6.8-6.5h49.3c3.8,0,6.8,2.9,6.8,6.5v2
				C145.6,206.7,142.5,209.7,138.8,209.7z"/>
		</g>
		<path class="st24" d="M138.6,126.6H89.3c-3.8,0-6.8-2.9-6.8-6.5v-2c0-3.6,3-6.5,6.8-6.5h49.3c3.8,0,6.8,2.9,6.8,6.5v2
			C145.4,123.7,142.3,126.6,138.6,126.6z"/>
	</g>
	<g>
		<path class="st108" d="M122.1,162.7c2.1-7.6,11.3-37.9,36-64.9c16-17.5,30.9-25.3,38.1-28.5"/>
		<g>
			<path d="M232.5,138.1"/>
			<path class="st109" d="M252.8,28c0.7,14.4-17.2,40.3-44.5,62.7s-55.2,34.2-68,29.7c-0.7-14.4,17.2-40.3,44.5-62.7
				S240.1,23.5,252.8,28z"/>
			<path class="st110" d="M140.4,120.3c13.5-16.3,31.4-35,54-53.4c21.1-17.1,41.3-29.7,58.5-39"/>
			<path class="st111" d="M149.5,109.5c4.3-2.2,11.6-5.4,21.2-6.1c7-0.4,12.9,0.5,17,1.6"/>
			<path class="st112" d="M159.6,98.9c4.3-2.2,11.6-5.4,21.2-6c7-0.4,12.9,0.5,17,1.7"/>
			<path class="st113" d="M170.3,88c4.2-2.2,11.3-5.3,20.5-6c6.8-0.4,12.5,0.6,16.5,1.7"/>
			<path class="st114" d="M183,76.6c4.3-2.2,11.5-5.3,21-6c7-0.4,12.8,0.5,16.9,1.7"/>
			<path class="st115" d="M197.7,64.3c4.2-2.2,11.3-5.3,20.5-6c6.8-0.4,12.5,0.6,16.5,1.7"/>
			<path class="st116" d="M214.7,51.6c3.4-1.6,9.1-3.5,16-2.7c5.1,0.6,9.2,2.6,12.1,4.3"/>
			<path class="st117" d="M220.1,47.7c3-2.1,8-5,14.5-5.2c4.9-0.2,9,1,11.9,2.2"/>
		</g>
	</g>
	<g>
		<path class="st118" d="M113.7,193.1c-1.6-7.2-8.2-35.8-25.9-61.3c-11.5-16.4-22.3-23.9-27.5-26.9"/>
		<g>
			<path d="M34.2,169.9"/>
			<path class="st119" d="M19.4,66c-0.4,13.7,12.4,38,32,59.2s39.8,32.2,49,28c0.4-13.7-12.4-38-32-59.2S28.7,61.8,19.4,66z"/>
			<path class="st120" d="M100.6,153.1C90.8,137.7,78,120,61.7,102.7C46.5,86.6,31.8,74.7,19.4,66"/>
			<path class="st121" d="M93.9,143c-3.1-2.1-8.4-5.1-15.3-5.7c-5.1-0.4-9.3,0.5-12.3,1.6"/>
			<path class="st122" d="M86.7,132.8c-3.1-2.1-8.4-5.1-15.2-5.7c-5.1-0.4-9.3,0.5-12.2,1.6"/>
			<path class="st123" d="M78.8,122.6c-3-2.1-8.1-5-14.7-5.7c-4.9-0.4-9,0.5-11.9,1.6"/>
			<path class="st124" d="M69.7,111.8c-3.1-2.1-8.3-5.1-15.1-5.7c-5-0.4-9.2,0.5-12.2,1.6"/>
			<path class="st125" d="M59.2,100.3c-3-2.1-8.1-5-14.7-5.7c-4.9-0.4-9,0.5-11.9,1.6"/>
			<path class="st126" d="M46.9,88.2c-2.4-1.5-6.5-3.3-11.5-2.6c-3.7,0.6-6.7,2.5-8.6,4.1"/>
			<path class="st127" d="M43,84.7c-2.1-2-5.8-4.7-10.5-5c-3.5-0.2-6.4,1-8.5,2.1"/>
		</g>
	</g>
	<g>
		<path class="st118" d="M113.6,269.2c-1.6-7.2-8.2-35.8-25.9-61.3C76.1,191.4,65.3,184,60.1,181"/>
		<g>
			<path d="M33.9,245.9"/>
			<path class="st119" d="M19.3,142c-0.4,13.7,12.4,38,32,59.2s39.8,32.2,49,28c0.4-13.7-12.4-38-32-59.2
				C48.7,148.9,28.5,137.8,19.3,142z"/>
			<path class="st120" d="M100.4,229.1c-9.8-15.4-22.6-33.1-38.9-50.4c-15.2-16.1-29.7-28-42.1-36.7"/>
			<path class="st121" d="M93.8,219c-3.1-2.1-8.4-5.1-15.3-5.7c-5.1-0.4-9.3,0.5-12.3,1.6"/>
			<path class="st122" d="M86.5,208.8c-3.1-2.1-8.4-5.1-15.2-5.7c-5.1-0.4-9.3,0.5-12.2,1.6"/>
			<path class="st123" d="M78.7,198.6c-3-2.1-8.1-5-14.7-5.7c-4.9-0.4-9,0.5-11.9,1.6"/>
			<path class="st124" d="M69.6,187.8c-3.1-2.1-8.3-5.1-15.1-5.7c-5-0.4-9.2,0.5-12.2,1.6"/>
			<path class="st125" d="M59,176.3c-3-2.1-8.1-5-14.7-5.7c-4.9-0.4-9,0.5-11.9,1.6"/>
			<path class="st126" d="M46.8,164.3c-2.4-1.5-6.5-3.3-11.5-2.6c-3.7,0.6-6.7,2.5-8.6,4.1"/>
			<path class="st127" d="M42.8,160.7c-2.1-2-5.8-4.7-10.5-5c-3.5-0.2-6.4,1-8.5,2.1"/>
		</g>
	</g>
	<g>
		<path class="st118" d="M113.6,349.1c-1.6-7.2-8.2-35.8-25.9-61.3c-11.5-16.4-22.3-23.9-27.5-26.9"/>
		<g>
			<path d="M33.9,325.8"/>
			<path class="st119" d="M19.3,221.9c-0.4,13.7,12.4,38,32,59.2s39.8,32.2,49,28c0.4-13.7-12.4-38-32-59.2S28.5,217.7,19.3,221.9z"
				/>
			<path class="st120" d="M100.4,309.1c-9.8-15.4-22.6-33.1-38.9-50.4c-15.2-16.1-29.7-28-42.1-36.7"/>
			<path class="st121" d="M93.8,298.8c-3.1-2.1-8.4-5.1-15.3-5.7c-5.1-0.4-9.3,0.5-12.3,1.6"/>
			<path class="st122" d="M86.5,288.8c-3.1-2.1-8.4-5.1-15.2-5.7c-5.1-0.4-9.3,0.5-12.2,1.6"/>
			<path class="st123" d="M78.7,278.6c-3-2.1-8.1-5-14.7-5.7c-4.9-0.4-9,0.5-11.9,1.6"/>
			<path class="st124" d="M69.6,267.7c-3.1-2.1-8.3-5.1-15.1-5.7c-5-0.4-9.2,0.5-12.2,1.6"/>
			<path class="st125" d="M59,256.1c-3-2.1-8.1-5-14.7-5.7c-4.9-0.4-9,0.5-11.9,1.6"/>
			<path class="st126" d="M46.8,244.2c-2.4-1.5-6.5-3.3-11.5-2.6c-3.7,0.6-6.7,2.5-8.6,4.1"/>
			<path class="st127" d="M42.8,240.6c-2.1-2-5.8-4.7-10.5-5c-3.5-0.2-6.4,1-8.5,2.1"/>
		</g>
	</g>
	<g>
		<path class="st118" d="M112.6,424.8c-1.6-7.2-8.2-35.8-25.9-61.3c-11.5-16.4-22.3-23.9-27.5-26.9"/>
		<g>
			<path d="M33,401.5"/>
			<path class="st119" d="M18.3,297.6c-0.4,13.7,12.4,38,32,59.2s39.8,32.2,49,28c0.4-13.7-12.4-38-32-59.2
				C47.7,304.5,27.6,293.4,18.3,297.6z"/>
			<path class="st120" d="M99.5,384.7c-9.8-15.4-22.6-33.1-38.9-50.4c-15.2-16.1-29.7-28-42.1-36.7"/>
			<path class="st121" d="M92.8,374.5c-3.1-2.1-8.4-5.1-15.3-5.7c-5.1-0.4-9.3,0.5-12.3,1.6"/>
			<path class="st122" d="M85.6,364.5c-3.1-2.1-8.4-5.1-15.2-5.7c-5.1-0.4-9.3,0.5-12.2,1.6"/>
			<path class="st123" d="M77.7,354.2c-3-2.1-8.1-5-14.7-5.7c-4.9-0.4-9,0.5-11.9,1.6"/>
			<path class="st124" d="M68.6,343.4c-3.1-2.1-8.3-5.1-15.1-5.7c-5-0.4-9.2,0.5-12.2,1.6"/>
			<path class="st125" d="M58.1,331.8c-3-2.1-8.1-5-14.7-5.7c-4.9-0.4-9,0.5-11.9,1.6"/>
			<path class="st126" d="M45.8,319.9c-2.4-1.5-6.5-3.3-11.5-2.6c-3.7,0.6-6.7,2.5-8.6,4.1"/>
			<path class="st127" d="M41.9,316.3c-2.1-2-5.8-4.7-10.5-5c-3.5-0.2-6.4,1-8.5,2.1"/>
		</g>
	</g>
	<path class="st128" d="M474.1,499.3H97.4c-8.2,0-14.9-11-14.9-24.6v-3.1c0-9.5,3.3-18,8.4-22.1c9-7,20.6-14.2,34.6-17.9
		c30.5-8.2,54.8,4.4,64.2,8.8c85.7,39.6,145.4-46.2,268.7,2.1c7.5,3,14.3,6,19.8,8.8c6.3,3.1,10.6,12.6,10.6,23.5l0,0
		C488.9,488.3,482.3,499.3,474.1,499.3z"/>
	<text transform="matrix(1.0271 0 0 1 175.9951 255.252)" class="st129 st130">Self- discipline</text>
</g>
<g>
	<path class="st131" d="M348.2,499.9H5c-2.4,0-4.4-1.9-4.4-4.3V363.4c0,5.3,0.1,10.8,0.4,16.4c2.3,46,49.3,76.2,92.4,59.3
		c40.1-15.8,71.3-15.8,94.1-11.5c62.5,11.5,85.6,58.6,156.8,71.6C345.6,499.5,347,499.7,348.2,499.9z"/>
	<path class="st131" d="M500,389.6v106.1c0,2.3-2,4.3-4.4,4.3H446c-5,0-6.1-6.7-1.3-8.2c0.1,0,0.2-0.1,0.3-0.1
		c20.2-6.3,36.1-21.7,43.4-41.5C497,426.3,500,406.3,500,389.6z"/>
	<path class="st131" d="M495.6,0c2.4,0,4.4,1.9,4.4,4.3v385.3c0-14.2-2.2-25.9-5-35.6c-17.9-60.6-70.6-66.2-87.2-133
		c-11.8-47.6,3.5-91.4,11.5-114.1c1.4-4.1,3-8.1,4.5-12c18.4-45.1-16.2-94.1-65-92.5c-4.9,0.1-9.4,0.4-13.5,0.6
		c-93.5,6.4-135,44.3-218,37.5c-0.4,0-0.9-0.1-1.3-0.1c-41-3.5-76,29.8-73.5,70.9c0.7,11.5,0.6,23.5-0.4,36.1
		C46.6,215.6,16.9,244.1,5,312.2c-2.4,14.2-4.4,31.4-4.4,51.4V4.3C0.6,1.9,2.6,0,5,0H495.6z"/>
</g>
<path class="st132" d="M47.6,264.8"/>
</svg>
