<?xml version="1.0" encoding="utf-8"?>
<!-- Generator: Adobe Illustrator 27.1.1, SVG Export Plug-In . SVG Version: 6.00 Build 0)  -->
<svg version="1.1" id="Layer_1" xmlns="http://www.w3.org/2000/svg" xmlns:xlink="http://www.w3.org/1999/xlink" x="0px" y="0px"
	 viewBox="0 0 634 300" style="enable-background:new 0 0 634 300;" xml:space="preserve">
<style type="text/css">
	.st0{fill:#FFDF40;}
	.st1{fill:none;stroke:#4F4F4F;stroke-linecap:square;stroke-miterlimit:10;}
</style>
<rect x="28" class="st0" width="500" height="300"/>
<polyline class="st1" points="28,24.1 36.4,15 52.1,32 67.8,15 83.5,32 99.2,15 114.9,32 130.6,15 146.3,32 162,15 "/>
<path class="st1" d="M162,15l15.7,17l15.7-17l15.7,17l15.7-17l15.7,17l15.7-17l15.7,17l15.7-17l15.7,17L319,15"/>
<path class="st1" d="M319,15l15.7,17l15.7-17l15.7,17l15.7-17l15.7,17l15.7-17l15.7,17l15.7-17l15.7,17L476,15"/>
<polyline class="st1" points="476,15 491.7,32 507.4,15 523.1,32 528,26.7 "/>
<polyline class="st1" points="28,59.1 36.4,50 52.1,67 67.8,50 83.5,67 99.2,50 114.9,67 130.6,50 146.3,67 162,50 "/>
<path class="st1" d="M162,50l15.7,17l15.7-17l15.7,17l15.7-17l15.7,17l15.7-17l15.7,17l15.7-17l15.7,17L319,50"/>
<path class="st1" d="M319,50l15.7,17l15.7-17l15.7,17l15.7-17l15.7,17l15.7-17l15.7,17l15.7-17l15.7,17L476,50"/>
<polyline class="st1" points="476,50 491.7,67 507.4,50 523.1,67 528,61.7 "/>
<polyline class="st1" points="28,89.8 32.4,85 48.1,102 63.8,85 79.5,102 95.2,85 110.9,102 126.6,85 142.3,102 158,85 "/>
<path class="st1" d="M158,85l15.7,17l15.7-17l15.7,17l15.7-17l15.7,17l15.7-17l15.7,17l15.7-17l15.7,17L315,85"/>
<path class="st1" d="M315,85l15.7,17l15.7-17l15.7,17l15.7-17l15.7,17l15.7-17l15.7,17l15.7-17l15.7,17L472,85"/>
<polyline class="st1" points="472,85 487.7,102 503.4,85 519.1,102 528,92.3 "/>
<polyline class="st1" points="28,124.8 32.4,120 48.1,137 63.8,120 79.5,137 95.2,120 110.9,137 126.6,120 142.3,137 158,120 "/>
<path class="st1" d="M158,120l15.7,17l15.7-17l15.7,17l15.7-17l15.7,17l15.7-17l15.7,17l15.7-17l15.7,17l15.7-17"/>
<path class="st1" d="M315,120l15.7,17l15.7-17l15.7,17l15.7-17l15.7,17l15.7-17l15.7,17l15.7-17l15.7,17l15.7-17"/>
<polyline class="st1" points="472,120 487.7,137 503.4,120 519.1,137 528,127.3 "/>
<polyline class="st1" points="28,159.8 32.4,155 48.1,172 63.8,155 79.5,172 95.2,155 110.9,172 126.6,155 142.3,172 158,155 "/>
<path class="st1" d="M158,155l15.7,17l15.7-17l15.7,17l15.7-17l15.7,17l15.7-17l15.7,17l15.7-17l15.7,17l15.7-17"/>
<path class="st1" d="M315,155l15.7,17l15.7-17l15.7,17l15.7-17l15.7,17l15.7-17l15.7,17l15.7-17l15.7,17l15.7-17"/>
<polyline class="st1" points="472,155 487.7,172 503.4,155 519.1,172 528,162.4 "/>
<polyline class="st1" points="28,194.8 32.4,190 48.1,207 63.8,190 79.5,207 95.2,190 110.9,207 126.6,190 142.3,207 158,190 "/>
<path class="st1" d="M158,190l15.7,17l15.7-17l15.7,17l15.7-17l15.7,17l15.7-17l15.7,17l15.7-17l15.7,17l15.7-17"/>
<path class="st1" d="M315,190l15.7,17l15.7-17l15.7,17l15.7-17l15.7,17l15.7-17l15.7,17l15.7-17l15.7,17l15.7-17"/>
<polyline class="st1" points="472,190 487.7,207 503.4,190 519.1,207 528,197.4 "/>
<polyline class="st1" points="28,229.8 32.4,225 48.1,242 63.8,225 79.5,242 95.2,225 110.9,242 126.6,225 142.3,242 158,225 "/>
<path class="st1" d="M158,225l15.7,17l15.7-17l15.7,17l15.7-17l15.7,17l15.7-17l15.7,17l15.7-17l15.7,17l15.7-17"/>
<path class="st1" d="M315,225l15.7,17l15.7-17l15.7,17l15.7-17l15.7,17l15.7-17l15.7,17l15.7-17l15.7,17l15.7-17"/>
<polyline class="st1" points="472,225 487.7,242 503.4,225 519.1,242 528,232.4 "/>
<polyline class="st1" points="28,264.8 32.4,260 48.1,277 63.8,260 79.5,277 95.2,260 110.9,277 126.6,260 142.3,277 158,260 "/>
<path class="st1" d="M158,260l15.7,17l15.7-17l15.7,17l15.7-17l15.7,17l15.7-17l15.7,17l15.7-17l15.7,17l15.7-17"/>
<path class="st1" d="M315,260l15.7,17l15.7-17l15.7,17l15.7-17l15.7,17l15.7-17l15.7,17l15.7-17l15.7,17l15.7-17"/>
<polyline class="st1" points="472,260 487.7,277 503.4,260 519.1,277 528,267.4 "/>
</svg>
