<svg width="634" height="300" viewBox="0 0 634 300" fill="none" xmlns="http://www.w3.org/2000/svg">
<rect x="28" width="500" height="300" fill="#FFDF40"/>
<path d="M5 15L20.7018 32L36.4036 15L52.0874 32L67.7894 15L83.4728 32L99.1745 15L114.877 32L130.578 15L146.28 32L162 15" stroke="#4F4F4F" stroke-miterlimit="10" stroke-linecap="square"/>
<path d="M162 15L177.702 32L193.404 15L209.087 32L224.789 15L240.473 32L256.174 15L271.877 32L287.578 15L303.28 32L319 15" stroke="#4F4F4F" stroke-miterlimit="10" stroke-linecap="square"/>
<path d="M319 15L334.702 32L350.404 15L366.087 32L381.789 15L397.473 32L413.174 15L428.877 32L444.578 15L460.28 32L476 15" stroke="#4F4F4F" stroke-miterlimit="10" stroke-linecap="square"/>
<path d="M476 15L491.702 32L507.404 15L523.087 32L538.789 15L554.473 32L570.174 15L585.877 32L601.578 15L617.28 32L633 15" stroke="#4F4F4F" stroke-miterlimit="10" stroke-linecap="square"/>
<path d="M5 50L20.7018 67L36.4036 50L52.0874 67L67.7894 50L83.4728 67L99.1745 50L114.877 67L130.578 50L146.28 67L162 50" stroke="#4F4F4F" stroke-miterlimit="10" stroke-linecap="square"/>
<path d="M162 50L177.702 67L193.404 50L209.087 67L224.789 50L240.473 67L256.174 50L271.877 67L287.578 50L303.28 67L319 50" stroke="#4F4F4F" stroke-miterlimit="10" stroke-linecap="square"/>
<path d="M319 50L334.702 67L350.404 50L366.087 67L381.789 50L397.473 67L413.174 50L428.877 67L444.578 50L460.28 67L476 50" stroke="#4F4F4F" stroke-miterlimit="10" stroke-linecap="square"/>
<path d="M476 50L491.702 67L507.404 50L523.087 67L538.789 50L554.473 67L570.174 50L585.877 67L601.578 50L617.28 67L633 50" stroke="#4F4F4F" stroke-miterlimit="10" stroke-linecap="square"/>
<path d="M1 85L16.7018 102L32.4036 85L48.0874 102L63.7894 85L79.4728 102L95.1745 85L110.877 102L126.578 85L142.28 102L158 85" stroke="#4F4F4F" stroke-miterlimit="10" stroke-linecap="square"/>
<path d="M158 85L173.702 102L189.404 85L205.087 102L220.789 85L236.473 102L252.174 85L267.877 102L283.578 85L299.28 102L315 85" stroke="#4F4F4F" stroke-miterlimit="10" stroke-linecap="square"/>
<path d="M315 85L330.702 102L346.404 85L362.087 102L377.789 85L393.473 102L409.174 85L424.877 102L440.578 85L456.28 102L472 85" stroke="#4F4F4F" stroke-miterlimit="10" stroke-linecap="square"/>
<path d="M472 85L487.702 102L503.404 85L519.087 102L534.789 85L550.473 102L566.174 85L581.877 102L597.578 85L613.28 102L629 85" stroke="#4F4F4F" stroke-miterlimit="10" stroke-linecap="square"/>
<path d="M1 120L16.7018 137L32.4036 120L48.0874 137L63.7894 120L79.4728 137L95.1745 120L110.877 137L126.578 120L142.28 137L158 120" stroke="#4F4F4F" stroke-miterlimit="10" stroke-linecap="square"/>
<path d="M158 120L173.702 137L189.404 120L205.087 137L220.789 120L236.473 137L252.174 120L267.877 137L283.578 120L299.28 137L315 120" stroke="#4F4F4F" stroke-miterlimit="10" stroke-linecap="square"/>
<path d="M315 120L330.702 137L346.404 120L362.087 137L377.789 120L393.473 137L409.174 120L424.877 137L440.578 120L456.28 137L472 120" stroke="#4F4F4F" stroke-miterlimit="10" stroke-linecap="square"/>
<path d="M472 120L487.702 137L503.404 120L519.087 137L534.789 120L550.473 137L566.174 120L581.877 137L597.578 120L613.28 137L629 120" stroke="#4F4F4F" stroke-miterlimit="10" stroke-linecap="square"/>
<path d="M1 155L16.7018 172L32.4036 155L48.0874 172L63.7894 155L79.4728 172L95.1745 155L110.877 172L126.578 155L142.28 172L158 155" stroke="#4F4F4F" stroke-miterlimit="10" stroke-linecap="square"/>
<path d="M158 155L173.702 172L189.404 155L205.087 172L220.789 155L236.473 172L252.174 155L267.877 172L283.578 155L299.28 172L315 155" stroke="#4F4F4F" stroke-miterlimit="10" stroke-linecap="square"/>
<path d="M315 155L330.702 172L346.404 155L362.087 172L377.789 155L393.473 172L409.174 155L424.877 172L440.578 155L456.28 172L472 155" stroke="#4F4F4F" stroke-miterlimit="10" stroke-linecap="square"/>
<path d="M472 155L487.702 172L503.404 155L519.087 172L534.789 155L550.473 172L566.174 155L581.877 172L597.578 155L613.28 172L629 155" stroke="#4F4F4F" stroke-miterlimit="10" stroke-linecap="square"/>
<path d="M1 190L16.7018 207L32.4036 190L48.0874 207L63.7894 190L79.4728 207L95.1745 190L110.877 207L126.578 190L142.28 207L158 190" stroke="#4F4F4F" stroke-miterlimit="10" stroke-linecap="square"/>
<path d="M158 190L173.702 207L189.404 190L205.087 207L220.789 190L236.473 207L252.174 190L267.877 207L283.578 190L299.28 207L315 190" stroke="#4F4F4F" stroke-miterlimit="10" stroke-linecap="square"/>
<path d="M315 190L330.702 207L346.404 190L362.087 207L377.789 190L393.473 207L409.174 190L424.877 207L440.578 190L456.28 207L472 190" stroke="#4F4F4F" stroke-miterlimit="10" stroke-linecap="square"/>
<path d="M472 190L487.702 207L503.404 190L519.087 207L534.789 190L550.473 207L566.174 190L581.877 207L597.578 190L613.28 207L629 190" stroke="#4F4F4F" stroke-miterlimit="10" stroke-linecap="square"/>
<path d="M1 225L16.7018 242L32.4036 225L48.0874 242L63.7894 225L79.4728 242L95.1745 225L110.877 242L126.578 225L142.28 242L158 225" stroke="#4F4F4F" stroke-miterlimit="10" stroke-linecap="square"/>
<path d="M158 225L173.702 242L189.404 225L205.087 242L220.789 225L236.473 242L252.174 225L267.877 242L283.578 225L299.28 242L315 225" stroke="#4F4F4F" stroke-miterlimit="10" stroke-linecap="square"/>
<path d="M315 225L330.702 242L346.404 225L362.087 242L377.789 225L393.473 242L409.174 225L424.877 242L440.578 225L456.28 242L472 225" stroke="#4F4F4F" stroke-miterlimit="10" stroke-linecap="square"/>
<path d="M472 225L487.702 242L503.404 225L519.087 242L534.789 225L550.473 242L566.174 225L581.877 242L597.578 225L613.28 242L629 225" stroke="#4F4F4F" stroke-miterlimit="10" stroke-linecap="square"/>
<path d="M1 260L16.7018 277L32.4036 260L48.0874 277L63.7894 260L79.4728 277L95.1745 260L110.877 277L126.578 260L142.28 277L158 260" stroke="#4F4F4F" stroke-miterlimit="10" stroke-linecap="square"/>
<path d="M158 260L173.702 277L189.404 260L205.087 277L220.789 260L236.473 277L252.174 260L267.877 277L283.578 260L299.28 277L315 260" stroke="#4F4F4F" stroke-miterlimit="10" stroke-linecap="square"/>
<path d="M315 260L330.702 277L346.404 260L362.087 277L377.789 260L393.473 277L409.174 260L424.877 277L440.578 260L456.28 277L472 260" stroke="#4F4F4F" stroke-miterlimit="10" stroke-linecap="square"/>
<path d="M472 260L487.702 277L503.404 260L519.087 277L534.789 260L550.473 277L566.174 260L581.877 277L597.578 260L613.28 277L629 260" stroke="#4F4F4F" stroke-miterlimit="10" stroke-linecap="square"/>
</svg>
